<svg width="18" height="18" viewBox="0 0 18 18" fill="none" xmlns="http://www.w3.org/2000/svg">
<g filter="url(#filter0_i_301_2703)">
<path fill-rule="evenodd" clip-rule="evenodd" d="M15.4343 5.27413C16.3267 5.27413 17.1311 4.73735 17.4719 3.91443C17.8126 3.09151 17.6227 2.14477 16.9906 1.51623C16.3585 0.887688 15.409 0.701336 14.5854 1.04418C13.7619 1.38702 13.2267 2.19143 13.2297 3.08184C13.2338 4.29382 14.2197 5.27414 15.4343 5.27413ZM15.4344 2.13157C15.9603 2.13157 16.3867 2.55701 16.3867 3.08182C16.3867 3.60662 15.9603 4.03206 15.4344 4.03206C14.9084 4.03206 14.482 3.60662 14.482 3.08182C14.482 2.55701 14.9084 2.13157 15.4344 2.13157ZM1.9217 12.7489C1.9217 15.233 3.29397 16.5947 5.77607 16.5947C6.12226 16.5988 6.40192 16.8778 6.40597 17.2232C6.40186 17.5674 6.12104 17.8443 5.77607 17.8443C2.62658 17.8443 0.669403 15.8914 0.669403 12.7489V6.63587C0.669403 3.48585 2.62658 1.53298 5.77607 1.53298H11.2952C11.6401 1.53708 11.9176 1.81728 11.9176 2.16149C11.9176 2.3275 11.851 2.48661 11.7326 2.60329C11.6143 2.71997 11.454 2.78452 11.2877 2.78252H5.77607C3.29397 2.78252 1.9217 4.15177 1.9217 6.63587V12.7489ZM10.74 11.1178C10.635 11.2472 10.4851 11.3326 10.3201 11.3572C10.1558 11.3739 9.99155 11.3255 9.86266 11.2225L7.56054 9.41931L5.49088 12.1054C5.39218 12.2394 5.24377 12.3283 5.07887 12.3522C4.91397 12.3761 4.74634 12.333 4.61352 12.2326C4.34246 12.0206 4.29235 11.6306 4.50104 11.3572L6.95314 8.16978C7.05543 8.03763 7.20622 7.95152 7.37222 7.93047C7.53823 7.90941 7.70582 7.95513 7.83799 8.05754L10.1401 9.86076L12.1648 7.27939C12.387 7.06855 12.7301 7.05065 12.9731 7.23721C13.2162 7.42378 13.2869 7.7592 13.1396 8.02762L10.74 11.1178ZM16.4168 6.63583C16.0731 6.63583 15.7944 6.91388 15.7944 7.25686V12.7488C15.7719 15.2329 14.3997 16.5947 11.9176 16.5947H9.41298C9.06678 16.5987 8.78713 16.8778 8.78308 17.2232C8.78719 17.5674 9.068 17.8442 9.41298 17.8442H11.9176C15.0671 17.8442 17.0317 15.8914 17.0317 12.7488V7.25686C17.0318 6.91678 16.7576 6.63993 16.4168 6.63583Z" fill="url(#paint0_linear_301_2703)"/>
</g>
<defs>
<filter id="filter0_i_301_2703" x="0.669403" y="0.874512" width="16.9696" height="16.9697" filterUnits="userSpaceOnUse" color-interpolation-filters="sRGB">
<feFlood flood-opacity="0" result="BackgroundImageFix"/>
<feBlend mode="normal" in="SourceGraphic" in2="BackgroundImageFix" result="shape"/>
<feColorMatrix in="SourceAlpha" type="matrix" values="0 0 0 0 0 0 0 0 0 0 0 0 0 0 0 0 0 0 127 0" result="hardAlpha"/>
<feOffset dx="-0.526063" dy="0.526063"/>
<feComposite in2="hardAlpha" operator="arithmetic" k2="-1" k3="1"/>
<feColorMatrix type="matrix" values="0 0 0 0 0.68 0 0 0 0 0.656 0 0 0 0 0.52 0 0 0 1 0"/>
<feBlend mode="normal" in2="shape" result="effect1_innerShadow_301_2703"/>
</filter>
<linearGradient id="paint0_linear_301_2703" x1="17.639" y1="0.874513" x2="4.83883" y2="20.5559" gradientUnits="userSpaceOnUse">
<stop stop-color="#FBFBF9"/>
<stop offset="1" stop-color="#ADA785"/>
</linearGradient>
</defs>
</svg>
