<svg width="64" height="64" viewBox="0 0 64 64" fill="none" xmlns="http://www.w3.org/2000/svg">
<g filter="url(#filter0_i_301_3427)">
<path d="M36.8936 17.3081C37.4988 16.2517 37.137 14.9025 36.0856 14.2945C35.0341 13.6866 33.6912 14.05 33.086 15.1064L32.0305 16.9488L30.975 15.1064C30.3698 14.05 29.0269 13.6866 27.9754 14.2945C26.924 14.9025 26.5622 16.2517 27.1674 17.3081L29.496 21.3729L22.1305 34.2298H16.1966C14.9835 34.2298 14 35.2178 14 36.4366C14 37.6554 14.9835 38.6435 16.1966 38.6435H36.8649C37.046 38.1651 37.2368 37.3443 37.0339 36.5899C36.7288 35.4558 35.6 34.2298 33.7085 34.2298H27.1994L36.8936 17.3081Z" fill="url(#paint0_linear_301_3427)"/>
<path d="M36.8936 17.3081C37.4988 16.2517 37.137 14.9025 36.0856 14.2945C35.0341 13.6866 33.6912 14.05 33.086 15.1064L32.0305 16.9488L30.975 15.1064C30.3698 14.05 29.0269 13.6866 27.9754 14.2945C26.924 14.9025 26.5622 16.2517 27.1674 17.3081L29.496 21.3729L22.1305 34.2298H16.1966C14.9835 34.2298 14 35.2178 14 36.4366C14 37.6554 14.9835 38.6435 16.1966 38.6435H36.8649C37.046 38.1651 37.2368 37.3443 37.0339 36.5899C36.7288 35.4558 35.6 34.2298 33.7085 34.2298H27.1994L36.8936 17.3081Z" fill="black" fill-opacity="0.6"/>
<path d="M23.2728 41.0838C22.898 40.6657 22.0583 39.9975 21.322 39.7775C20.1993 39.4422 19.3483 39.6526 18.9188 39.8359L17.2826 42.6919C16.6775 43.7483 17.0393 45.0975 18.0907 45.7055C19.1421 46.3134 20.4851 45.95 21.0902 44.8936L23.2728 41.0838Z" fill="url(#paint1_linear_301_3427)"/>
<path d="M23.2728 41.0838C22.898 40.6657 22.0583 39.9975 21.322 39.7775C20.1993 39.4422 19.3483 39.6526 18.9188 39.8359L17.2826 42.6919C16.6775 43.7483 17.0393 45.0975 18.0907 45.7055C19.1421 46.3134 20.4851 45.95 21.0902 44.8936L23.2728 41.0838Z" fill="black" fill-opacity="0.6"/>
<path d="M44.4591 38.6435H47.8034C49.0165 38.6435 50 37.6554 50 36.4366C50 35.2178 49.0165 34.2298 47.8034 34.2298H41.9305L35.315 22.6822C34.8236 23.1513 33.8814 24.35 33.739 25.7089C33.5559 27.456 33.8305 28.9272 34.6542 30.3678C37.4236 35.2112 40.1973 40.0525 42.9708 44.8936C43.5759 45.95 44.9189 46.3134 45.9703 45.7055C47.0218 45.0975 47.3835 43.7483 46.7784 42.6919L44.4591 38.6435Z" fill="url(#paint2_linear_301_3427)"/>
<path d="M44.4591 38.6435H47.8034C49.0165 38.6435 50 37.6554 50 36.4366C50 35.2178 49.0165 34.2298 47.8034 34.2298H41.9305L35.315 22.6822C34.8236 23.1513 33.8814 24.35 33.739 25.7089C33.5559 27.456 33.8305 28.9272 34.6542 30.3678C37.4236 35.2112 40.1973 40.0525 42.9708 44.8936C43.5759 45.95 44.9189 46.3134 45.9703 45.7055C47.0218 45.0975 47.3835 43.7483 46.7784 42.6919L44.4591 38.6435Z" fill="black" fill-opacity="0.6"/>
</g>
<path d="M30.8851 17.605L32.0305 19.6043L33.1759 17.605L34.2314 15.7625C34.4746 15.338 35.0088 15.1967 35.4248 15.4373C35.8444 15.6799 35.9935 16.2238 35.7483 16.6519L26.054 33.5736L24.9219 35.5498H27.1994H33.7085C34.951 35.5498 35.5953 36.3233 35.7592 36.9328C35.7891 37.0441 35.8036 37.1759 35.8008 37.3235H16.1966C15.7182 37.3235 15.32 36.9322 15.32 36.4366C15.32 35.941 15.7182 35.5498 16.1966 35.5498H22.1305H22.8955L23.2759 34.8859L30.6414 22.029L31.0173 21.3729L30.6414 20.7167L28.3127 16.6519C28.0675 16.2238 28.2166 15.6799 28.6362 15.4373C29.0522 15.1967 29.5864 15.338 29.8296 15.7625L30.8851 17.605ZM20.9443 41.0423C21.1026 41.0896 21.3297 41.203 21.5849 41.3747L19.9449 44.2375C19.7017 44.662 19.1675 44.8033 18.7515 44.5627C18.3318 44.3201 18.1828 43.7762 18.428 43.3481L19.803 40.9481C20.0742 40.9036 20.4618 40.8982 20.9443 41.0423ZM35.0518 25.8465C35.0756 25.6194 35.1362 25.3915 35.2199 25.1715L40.7852 34.8859L41.1655 35.5498H41.9305H47.8034C48.2817 35.5498 48.68 35.941 48.68 36.4366C48.68 36.9322 48.2817 37.3235 47.8034 37.3235H44.4591H42.1816L43.3137 39.2996L45.633 43.3481C45.8783 43.7762 45.7292 44.3201 45.3096 44.5627C44.8935 44.8033 44.3593 44.662 44.1161 44.2375L43.8007 43.6868C41.1323 39.0291 38.4642 34.3718 35.8001 29.7126L34.7244 30.3277L35.8001 29.7126C35.1279 28.537 34.8945 27.3481 35.0518 25.8465Z" stroke="url(#paint3_linear_301_3427)" stroke-width="2.64"/>
<defs>
<filter id="filter0_i_301_3427" x="11.38" y="12.38" width="38.62" height="33.62" filterUnits="userSpaceOnUse" color-interpolation-filters="sRGB">
<feFlood flood-opacity="0" result="BackgroundImageFix"/>
<feBlend mode="normal" in="SourceGraphic" in2="BackgroundImageFix" result="shape"/>
<feColorMatrix in="SourceAlpha" type="matrix" values="0 0 0 0 0 0 0 0 0 0 0 0 0 0 0 0 0 0 127 0" result="hardAlpha"/>
<feOffset dx="-2.62" dy="-1.62"/>
<feGaussianBlur stdDeviation="2.32"/>
<feComposite in2="hardAlpha" operator="arithmetic" k2="-1" k3="1"/>
<feColorMatrix type="matrix" values="0 0 0 0 0.980392 0 0 0 0 0.980392 0 0 0 0 0.980392 0 0 0 0.22 0"/>
<feBlend mode="normal" in2="shape" result="effect1_innerShadow_301_3427"/>
</filter>
<linearGradient id="paint0_linear_301_3427" x1="50" y1="14" x2="36.6604" y2="53.628" gradientUnits="userSpaceOnUse">
<stop stop-color="#D6D3C2" stop-opacity="0.2"/>
<stop offset="1" stop-color="#5C5C5C" stop-opacity="0.14"/>
</linearGradient>
<linearGradient id="paint1_linear_301_3427" x1="50" y1="14" x2="36.6604" y2="53.628" gradientUnits="userSpaceOnUse">
<stop stop-color="#D6D3C2" stop-opacity="0.2"/>
<stop offset="1" stop-color="#5C5C5C" stop-opacity="0.14"/>
</linearGradient>
<linearGradient id="paint2_linear_301_3427" x1="50" y1="14" x2="36.6604" y2="53.628" gradientUnits="userSpaceOnUse">
<stop stop-color="#D6D3C2" stop-opacity="0.2"/>
<stop offset="1" stop-color="#5C5C5C" stop-opacity="0.14"/>
</linearGradient>
<linearGradient id="paint3_linear_301_3427" x1="50" y1="14" x2="36.6604" y2="53.628" gradientUnits="userSpaceOnUse">
<stop stop-color="#999999"/>
<stop offset="1" stop-color="#141414"/>
</linearGradient>
</defs>
</svg>
