<svg width="209" height="113" viewBox="0 0 209 113" fill="none" xmlns="http://www.w3.org/2000/svg">
<g filter="url(#filter0_bdi_301_2866)">
<g clip-path="url(#clip0_301_2866)">
<rect width="150" height="243.75" rx="13.7438" transform="matrix(0.866025 0.5 -0.859406 0.511293 209.48 0)" fill="url(#paint0_linear_301_2866)" shape-rendering="crispEdges"/>
<g clip-path="url(#clip1_301_2866)">
<path d="M190.582 11.2433C197.197 7.3078 200.504 5.34003 204.328 4.58584C207.692 3.92244 211.32 3.8987 214.692 4.51802C218.525 5.22208 221.858 7.14639 228.524 10.995L320.34 64.005C327.006 67.8536 330.339 69.7779 331.598 72.0138C332.705 73.9805 332.719 76.1068 331.638 78.0879C330.408 80.34 327.101 82.3078 320.486 86.2433L178.245 170.867L48.3415 95.8674L190.582 11.2433Z" fill="url(#paint1_linear_301_2866)"/>
<g filter="url(#filter1_i_301_2866)">
<g filter="url(#filter2_i_301_2866)">
<rect width="24" height="18.75" rx="3.75" transform="matrix(0.866025 0.5 -0.859406 0.511293 102.653 89.4442)" fill="url(#paint2_linear_301_2866)"/>
</g>
<rect x="0.000767039" y="0.117193" width="23.7682" height="18.5182" rx="3.63412" transform="matrix(0.866025 0.5 -0.859406 0.511293 102.754 89.5011)" stroke="url(#paint3_linear_301_2866)" stroke-width="0.231768"/>
<path fill-rule="evenodd" clip-rule="evenodd" d="M112.092 98.2947L116.964 101.107C117.681 101.521 117.686 102.201 116.974 102.624C116.262 103.048 115.103 103.055 114.386 102.641L109.514 99.8286C108.797 99.4144 108.792 98.7352 109.504 98.3117C110.216 97.8881 111.375 97.8805 112.092 98.2947ZM109.18 98.1242C110.069 97.5947 111.518 97.5852 112.415 98.103L117.286 100.915C118.183 101.433 118.188 102.282 117.299 102.812C116.409 103.341 114.96 103.351 114.063 102.833L109.192 100.02C108.295 99.5026 108.29 98.6536 109.18 98.1242ZM103.324 93.2338L108.195 96.0463C108.912 96.4606 108.917 97.1397 108.205 97.5633C107.493 97.9869 106.334 97.9944 105.617 97.5802L100.745 94.7677C100.028 94.3535 100.024 93.6744 100.736 93.2508C101.447 92.8272 102.606 92.8196 103.324 93.2338ZM100.411 93.0633C101.301 92.5338 102.749 92.5243 103.646 93.0421L108.517 95.8546C109.414 96.3724 109.42 97.2213 108.53 97.7508C107.64 98.2802 106.191 98.2897 105.295 97.772L100.423 94.9595C99.5264 94.4417 99.5208 93.5927 100.411 93.0633ZM104.328 98.3458L99.4566 95.5333C98.7391 95.1191 97.5804 95.1267 96.8684 95.5503C96.1565 95.9739 96.1609 96.653 96.8783 97.0672L101.75 99.8797C102.467 100.294 103.626 100.286 104.338 99.8628C105.05 99.4392 105.045 98.7601 104.328 98.3458ZM99.7788 95.3416C98.882 94.8238 97.4336 94.8333 96.5437 95.3628C95.6537 95.8922 95.6593 96.7412 96.5561 97.259L101.427 100.071C102.324 100.589 103.773 100.58 104.663 100.05C105.553 99.5208 105.547 98.6719 104.65 98.1541L99.7788 95.3416ZM108.224 100.596L113.096 103.408C113.813 103.822 113.818 104.502 113.106 104.925C112.394 105.349 111.235 105.356 110.518 104.942L105.646 102.13C104.929 101.715 104.924 101.036 105.636 100.613C106.348 100.189 107.507 100.181 108.224 100.596ZM105.312 100.425C106.202 99.8957 107.65 99.8862 108.547 100.404L113.418 103.216C114.315 103.734 114.321 104.583 113.431 105.113C112.541 105.642 111.092 105.652 110.195 105.134L105.324 102.321C104.427 101.804 104.422 100.955 105.312 100.425ZM100.46 100.647L95.5886 97.8343C94.8712 97.4201 93.7124 97.4277 93.0005 97.8513C92.2885 98.2748 92.293 98.954 93.0104 99.3682L97.8818 102.181C98.5992 102.595 99.758 102.587 100.47 102.164C101.182 101.74 101.177 101.061 100.46 100.647ZM95.9109 97.6426C95.0141 97.1248 93.5657 97.1343 92.6757 97.6638C91.7858 98.1932 91.7913 99.0422 92.6881 99.5599L97.5595 102.372C98.4563 102.89 99.9048 102.881 100.795 102.351C101.685 101.822 101.679 100.973 100.782 100.455L95.9109 97.6426ZM104.358 102.897L109.229 105.709C109.946 106.123 109.951 106.803 109.239 107.226C108.527 107.65 107.368 107.657 106.651 107.243L101.779 104.431C101.062 104.016 101.058 103.337 101.77 102.914C102.481 102.49 103.64 102.482 104.358 102.897ZM101.445 102.726C102.335 102.197 103.783 102.187 104.68 102.705L109.551 105.517C110.448 106.035 110.454 106.884 109.564 107.414C108.674 107.943 107.225 107.953 106.329 107.435L101.457 104.622C100.56 104.105 100.555 103.256 101.445 102.726Z" fill="url(#paint4_linear_301_2866)"/>
</g>
<g filter="url(#filter3_i_301_2866)">
<path d="M164.32 43.1906L165.046 42.7583L166.155 43.2092L172.805 39.253L170.887 38.1457L169.553 38.7415L168.693 38.2449L170.718 37.0406L177.75 41.1006L175.725 42.3049L174.877 41.8151L175.868 41.0213L173.95 39.914L167.3 43.8702L168.086 44.5132L167.359 44.9455L164.32 43.1906ZM171.493 47.4743C170.912 47.1387 170.545 46.769 170.392 46.365C170.246 45.961 170.297 45.5512 170.546 45.1356C170.798 44.7177 171.231 44.3257 171.846 43.9597L171.973 43.8842C172.589 43.5182 173.249 43.2594 173.954 43.1078C174.663 42.9538 175.364 42.9164 176.055 42.9956C176.75 43.077 177.385 43.2833 177.958 43.6143C178.539 43.9499 178.903 44.3196 179.048 44.7236C179.197 45.1299 179.148 45.5408 178.9 45.9564C178.652 46.372 178.218 46.764 177.599 47.1323L177.472 47.2078C176.853 47.576 176.189 47.8372 175.48 47.9911C174.775 48.1428 174.078 48.1779 173.39 48.0964C172.703 48.0149 172.07 47.8076 171.493 47.4743ZM172.381 46.9459C172.924 47.259 173.552 47.3692 174.265 47.2763C174.979 47.1834 175.666 46.9402 176.327 46.5467L176.454 46.4713C176.893 46.2105 177.219 45.9414 177.433 45.664C177.655 45.3865 177.74 45.1179 177.688 44.8581C177.64 44.596 177.432 44.3587 177.064 44.1462C176.7 43.9359 176.294 43.8186 175.846 43.7944C175.402 43.7679 174.945 43.8218 174.475 43.9561C174.009 44.0881 173.557 44.2845 173.118 44.5453L172.991 44.6207C172.33 45.0142 171.924 45.4195 171.772 45.8368C171.624 46.2563 171.827 46.626 172.381 46.9459ZM174.352 48.9831L175.079 48.5508L176.188 49.0017L180.646 46.3494L179.86 45.7063L180.593 45.2706L182.569 46.4114L181.831 46.9388C182.329 46.879 182.817 46.8928 183.296 46.9802C183.775 47.0675 184.224 47.232 184.643 47.4736C185.061 47.7152 185.323 47.9793 185.429 48.2659C185.539 48.5547 185.478 48.8572 185.244 49.1731C185.796 49.0768 186.338 49.0608 186.871 49.1252C187.404 49.1896 187.888 49.347 188.321 49.5975C188.965 49.9689 189.253 50.3923 189.187 50.8678C189.124 51.3411 188.655 51.8384 187.778 52.36L184.935 54.0516L185.72 54.6946L184.994 55.1269L181.948 53.3687L182.675 52.9363L183.784 53.3872L186.639 51.6887C187.254 51.3228 187.582 51.0028 187.623 50.7287C187.667 50.4525 187.48 50.1935 187.062 49.9519C186.663 49.7215 186.201 49.6193 185.676 49.6454C185.159 49.6714 184.669 49.799 184.208 50.0283L181.134 51.8571L181.92 52.5001L181.193 52.9325L178.153 51.1776L178.88 50.7452L179.989 51.1961L182.844 49.4977C183.428 49.15 183.744 48.8323 183.793 48.5447C183.849 48.257 183.669 47.9935 183.255 47.7541C182.906 47.5528 182.548 47.4296 182.181 47.3845C181.814 47.3394 181.442 47.3588 181.064 47.4427L177.333 49.6627L178.119 50.3057L177.392 50.738L174.352 48.9831ZM186.948 56.2554L187.675 55.8231L188.784 56.2739L195.399 52.3383L194.613 51.6953L195.34 51.263L199.112 53.4407C200.034 53.973 200.537 54.5025 200.622 55.0291C200.71 55.5534 200.381 56.0374 199.635 56.4811C199.059 56.8243 198.446 57.0183 197.798 57.0633C197.15 57.1082 196.499 57.0209 195.845 56.8012L194.207 59.452L194.69 59.8527L193.946 60.2953L192.533 59.4799L194.62 56.2493L192.789 55.2331L189.929 56.9349L190.715 57.5779L189.988 58.0103L186.948 56.2554ZM193.683 54.7012L195.247 55.6038C195.886 55.9729 196.472 56.1693 197.005 56.193C197.538 56.2166 198.037 56.0901 198.502 55.8133C198.944 55.5502 199.154 55.2615 199.133 54.9472C199.112 54.6329 198.809 54.3068 198.223 53.9691L196.544 52.9993L193.683 54.7012ZM193.97 60.3093L194.697 59.8769L195.805 60.3278L200.264 57.6755L199.478 57.0325L200.21 56.5967L202.302 57.8046L196.95 60.9888L197.736 61.6318L197.009 62.0641L193.97 60.3093ZM202.639 56.1939L203.856 55.47L205.059 56.1645L203.842 56.8885L202.639 56.1939ZM199.197 63.4688C198.685 63.1735 198.37 62.8453 198.252 62.4841C198.142 62.1229 198.215 61.7525 198.471 61.373C198.727 60.9935 199.155 60.6254 199.755 60.2685L199.876 60.1965C200.545 59.7985 201.228 59.5056 201.925 59.3177C202.623 59.1299 203.294 59.0599 203.939 59.1077C204.587 59.1533 205.17 59.3248 205.685 59.6223C206.057 59.837 206.315 60.0672 206.459 60.3129C206.612 60.5585 206.66 60.8161 206.603 61.0857L209.147 59.5725L208.361 58.9295L209.093 58.4937L211.186 59.7017L203.077 64.5259L203.863 65.1689L203.136 65.6013L201.195 64.4806L201.846 63.9843C200.851 64.0858 199.968 63.914 199.197 63.4688ZM200.41 63.0876C200.751 63.2845 201.114 63.4042 201.501 63.447C201.887 63.4897 202.296 63.4712 202.728 63.3914L205.623 61.669C205.737 61.4284 205.753 61.1942 205.67 60.9662C205.588 60.7382 205.382 60.5292 205.053 60.3391C204.506 60.0237 203.877 59.9237 203.163 60.0392C202.454 60.157 201.74 60.4297 201.021 60.8575L200.899 60.9296C200.273 61.3024 199.899 61.677 199.778 62.0533C199.657 62.4297 199.867 62.7744 200.41 63.0876ZM205.323 67.006C204.812 66.7107 204.497 66.3824 204.379 66.0213C204.268 65.66 204.341 65.2896 204.597 64.9102C204.853 64.5307 205.281 64.1625 205.881 63.8057L206.002 63.7336C206.671 63.3356 207.354 63.0427 208.052 62.8549C208.749 62.6671 209.42 62.5971 210.065 62.6449C210.714 62.6904 211.296 62.8619 211.811 63.1594C212.183 63.3742 212.441 63.6044 212.586 63.85C212.738 64.0956 212.786 64.3532 212.73 64.6228L215.273 63.1096L214.487 62.4666L215.22 62.0309L217.312 63.2388L209.203 68.0631L209.989 68.7061L209.262 69.1384L207.321 68.0177L207.972 67.5214C206.977 67.6229 206.094 67.4511 205.323 67.006ZM206.536 66.6247C206.877 66.8216 207.241 66.9414 207.627 66.9841C208.013 67.0268 208.422 67.0083 208.854 66.9285L211.749 65.2061C211.864 64.9655 211.88 64.7313 211.797 64.5033C211.714 64.2754 211.508 64.0663 211.179 63.8762C210.633 63.5608 210.003 63.4608 209.29 63.5764C208.58 63.6941 207.866 63.9669 207.147 64.3946L207.026 64.4667C206.399 64.8395 206.025 65.2141 205.904 65.5905C205.783 65.9668 205.994 66.3116 206.536 66.6247ZM209.043 69.0114L209.769 68.5791L210.878 69.03L218.093 64.7375L217.307 64.0945L218.04 63.6588L220.132 64.8667L212.023 69.691L212.809 70.334L212.082 70.7663L209.043 69.0114ZM214.577 72.3488C213.996 72.0133 213.621 71.6436 213.452 71.2398C213.288 70.8336 213.322 70.4228 213.554 70.0073C213.791 69.594 214.217 69.2043 214.832 68.8383L215.086 68.6874C215.678 68.3351 216.329 68.091 217.038 67.9552C217.755 67.8193 218.452 67.7887 219.128 67.8635C219.811 67.9382 220.395 68.1153 220.88 68.3949C221.724 68.8826 222.11 69.4027 222.036 69.9552C221.966 70.5099 221.509 71.0388 220.663 71.5421L219.953 71.9641L215.874 69.6086L215.827 69.6157C215.239 69.9793 214.898 70.3616 214.804 70.7626C214.714 71.1614 214.935 71.514 215.465 71.8204C215.853 72.0441 216.246 72.2078 216.644 72.3116C217.05 72.4152 217.455 72.4714 217.861 72.4801L217.57 73.1776C217.13 73.176 216.649 73.1124 216.127 72.9868C215.613 72.8613 215.096 72.6486 214.577 72.3488ZM216.797 69.1004L219.697 70.7747L219.847 70.6855C220.293 70.4202 220.545 70.1289 220.605 69.8118C220.665 69.4947 220.458 69.1997 219.986 68.9268C219.602 68.7053 219.113 68.6124 218.519 68.6479C217.929 68.6812 217.36 68.8241 216.814 69.0765L216.797 69.1004Z" fill="url(#paint5_linear_301_2866)"/>
</g>
</g>
</g>
<rect x="0.00201053" y="0.30718" width="149.392" height="243.142" rx="13.44" transform="matrix(0.866025 0.5 -0.859406 0.511293 209.744 0.149116)" stroke="url(#paint6_linear_301_2866)" stroke-width="0.6075" shape-rendering="crispEdges"/>
</g>
<defs>
<filter id="filter0_bdi_301_2866" x="-8.49387" y="-8.49375" width="356.372" height="216.615" filterUnits="userSpaceOnUse" color-interpolation-filters="sRGB">
<feFlood flood-opacity="0" result="BackgroundImageFix"/>
<feGaussianBlur in="BackgroundImageFix" stdDeviation="4.24688"/>
<feComposite in2="SourceAlpha" operator="in" result="effect1_backgroundBlur_301_2866"/>
<feColorMatrix in="SourceAlpha" type="matrix" values="0 0 0 0 0 0 0 0 0 0 0 0 0 0 0 0 0 0 127 0" result="hardAlpha"/>
<feOffset dy="0.75"/>
<feComposite in2="hardAlpha" operator="out"/>
<feColorMatrix type="matrix" values="0 0 0 0 0 0 0 0 0 0 0 0 0 0 0 0 0 0 0.25 0"/>
<feBlend mode="normal" in2="effect1_backgroundBlur_301_2866" result="effect2_dropShadow_301_2866"/>
<feBlend mode="normal" in="SourceGraphic" in2="effect2_dropShadow_301_2866" result="shape"/>
<feColorMatrix in="SourceAlpha" type="matrix" values="0 0 0 0 0 0 0 0 0 0 0 0 0 0 0 0 0 0 127 0" result="hardAlpha"/>
<feOffset dx="0.9825" dy="-0.60675"/>
<feGaussianBlur stdDeviation="0.794842"/>
<feComposite in2="hardAlpha" operator="arithmetic" k2="-1" k3="1"/>
<feColorMatrix type="matrix" values="0 0 0 0 0.980392 0 0 0 0 0.980392 0 0 0 0 0.980392 0 0 0 0.22 0"/>
<feBlend mode="normal" in2="shape" result="effect3_innerShadow_301_2866"/>
</filter>
<filter id="filter1_i_301_2866" x="85.9321" y="89.4442" width="37.5052" height="22.5692" filterUnits="userSpaceOnUse" color-interpolation-filters="sRGB">
<feFlood flood-opacity="0" result="BackgroundImageFix"/>
<feBlend mode="normal" in="SourceGraphic" in2="BackgroundImageFix" result="shape"/>
<feColorMatrix in="SourceAlpha" type="matrix" values="0 0 0 0 0 0 0 0 0 0 0 0 0 0 0 0 0 0 127 0" result="hardAlpha"/>
<feOffset dx="-0.60675" dy="0.9825"/>
<feGaussianBlur stdDeviation="1.28631"/>
<feComposite in2="hardAlpha" operator="arithmetic" k2="-1" k3="1"/>
<feColorMatrix type="matrix" values="0 0 0 0 0.24 0 0 0 0 0.228 0 0 0 0 0.16 0 0 0 0.5 0"/>
<feBlend mode="normal" in2="shape" result="effect1_innerShadow_301_2866"/>
</filter>
<filter id="filter2_i_301_2866" x="88.434" y="89.5731" width="34.698" height="20.3473" filterUnits="userSpaceOnUse" color-interpolation-filters="sRGB">
<feFlood flood-opacity="0" result="BackgroundImageFix"/>
<feBlend mode="normal" in="SourceGraphic" in2="BackgroundImageFix" result="shape"/>
<feColorMatrix in="SourceAlpha" type="matrix" values="0 0 0 0 0 0 0 0 0 0 0 0 0 0 0 0 0 0 127 0" result="hardAlpha"/>
<feOffset dx="1.59" dy="-0.981721"/>
<feGaussianBlur stdDeviation="0.794842"/>
<feComposite in2="hardAlpha" operator="arithmetic" k2="-1" k3="1"/>
<feColorMatrix type="matrix" values="0 0 0 0 0.48 0 0 0 0 0.456 0 0 0 0 0.32 0 0 0 0.14 0"/>
<feBlend mode="normal" in2="shape" result="effect1_innerShadow_301_2866"/>
</filter>
<filter id="filter3_i_301_2866" x="162.199" y="36.6837" width="63.8963" height="37.0509" filterUnits="userSpaceOnUse" color-interpolation-filters="sRGB">
<feFlood flood-opacity="0" result="BackgroundImageFix"/>
<feBlend mode="normal" in="SourceGraphic" in2="BackgroundImageFix" result="shape"/>
<feColorMatrix in="SourceAlpha" type="matrix" values="0 0 0 0 0 0 0 0 0 0 0 0 0 0 0 0 0 0 127 0" result="hardAlpha"/>
<feOffset dx="-0.2325" dy="0.375"/>
<feComposite in2="hardAlpha" operator="arithmetic" k2="-1" k3="1"/>
<feColorMatrix type="matrix" values="0 0 0 0 0.68 0 0 0 0 0.656 0 0 0 0 0.52 0 0 0 1 0"/>
<feBlend mode="normal" in2="shape" result="effect1_innerShadow_301_2866"/>
</filter>
<linearGradient id="paint0_linear_301_2866" x1="150" y1="0" x2="-8.23409e-06" y2="243.75" gradientUnits="userSpaceOnUse">
<stop stop-color="#D6D3C2" stop-opacity="0.2"/>
<stop offset="1" stop-color="#5C5C5C" stop-opacity="0.14"/>
</linearGradient>
<linearGradient id="paint1_linear_301_2866" x1="339.384" y1="75" x2="119.599" y2="211.013" gradientUnits="userSpaceOnUse">
<stop stop-color="#262626"/>
<stop offset="1" stop-color="#121212"/>
</linearGradient>
<linearGradient id="paint2_linear_301_2866" x1="-2.28571" y1="-3.77404e-07" x2="26.3569" y2="18.0945" gradientUnits="userSpaceOnUse">
<stop stop-color="#D6D3C2"/>
<stop offset="0.212761" stop-color="#B6B5AF"/>
<stop offset="0.548384" stop-color="#E2E0D4"/>
<stop offset="0.914316" stop-color="#9E9D94"/>
<stop offset="1" stop-color="#ADA785"/>
</linearGradient>
<linearGradient id="paint3_linear_301_2866" x1="24.1371" y1="-2.94708e-07" x2="-0.438303" y2="18.1567" gradientUnits="userSpaceOnUse">
<stop stop-color="#D6D3C2"/>
<stop offset="1" stop-color="#3D3A29" stop-opacity="0"/>
</linearGradient>
<linearGradient id="paint4_linear_301_2866" x1="118.91" y1="101.853" x2="93.093" y2="92.8226" gradientUnits="userSpaceOnUse">
<stop stop-color="#BAB8AB"/>
<stop offset="1" stop-color="#A3A08F"/>
</linearGradient>
<linearGradient id="paint5_linear_301_2866" x1="160.903" y1="42.2255" x2="189.205" y2="20.0369" gradientUnits="userSpaceOnUse">
<stop stop-color="#ADA785"/>
<stop offset="1" stop-color="#D6D3C2"/>
</linearGradient>
<linearGradient id="paint6_linear_301_2866" x1="150" y1="0" x2="-8.23409e-06" y2="243.75" gradientUnits="userSpaceOnUse">
<stop stop-color="#FAFAFA"/>
<stop offset="1" stop-color="#5C5C5C" stop-opacity="0.08"/>
</linearGradient>
<clipPath id="clip0_301_2866">
<rect width="150" height="243.75" rx="13.7438" transform="matrix(0.866025 0.5 -0.859406 0.511293 209.48 0)" fill="white"/>
</clipPath>
<clipPath id="clip1_301_2866">
<path d="M190.582 11.2433C197.197 7.3078 200.504 5.34003 204.328 4.58584C207.692 3.92244 211.32 3.8987 214.692 4.51802C218.525 5.22208 221.858 7.14639 228.524 10.995L320.34 64.005C327.006 67.8536 330.339 69.7779 331.598 72.0138C332.705 73.9805 332.719 76.1068 331.638 78.0879C330.408 80.34 327.101 82.3078 320.486 86.2433L178.245 170.867L48.3415 95.8674L190.582 11.2433Z" fill="white"/>
</clipPath>
</defs>
</svg>
