<svg width="268" height="201" viewBox="0 0 268 201" fill="none" xmlns="http://www.w3.org/2000/svg">
<g filter="url(#filter0_bdi_301_2825)">
<g clip-path="url(#clip0_301_2825)">
<rect width="150" height="243.75" rx="13.7438" transform="matrix(0.866025 0.5 -0.859406 0.511293 209.48 1)" fill="url(#paint0_linear_301_2825)" shape-rendering="crispEdges"/>
<g clip-path="url(#clip1_301_2825)">
<path d="M190.582 12.2433C197.197 8.3078 200.504 6.34003 204.328 5.58584C207.692 4.92244 211.32 4.8987 214.692 5.51802C218.525 6.22208 221.858 8.14639 228.524 11.995L320.34 65.005C327.006 68.8536 330.339 70.7779 331.598 73.0138C332.705 74.9805 332.719 77.1068 331.638 79.0879C330.408 81.34 327.101 83.3078 320.486 87.2433L178.245 171.867L48.3415 96.8674L190.582 12.2433Z" fill="url(#paint1_linear_301_2825)"/>
<g filter="url(#filter1_i_301_2825)">
<g filter="url(#filter2_i_301_2825)">
<rect width="24" height="18.75" rx="3.75" transform="matrix(0.866025 0.5 -0.859406 0.511293 102.652 90.4443)" fill="url(#paint2_linear_301_2825)"/>
</g>
<rect x="0.000767039" y="0.117193" width="23.7682" height="18.5182" rx="3.63412" transform="matrix(0.866025 0.5 -0.859406 0.511293 102.753 90.5012)" stroke="url(#paint3_linear_301_2825)" stroke-width="0.231768"/>
<path fill-rule="evenodd" clip-rule="evenodd" d="M112.093 99.2945L116.964 102.107C117.681 102.521 117.686 103.2 116.974 103.624C116.262 104.048 115.103 104.055 114.386 103.641L109.514 100.828C108.797 100.414 108.792 99.735 109.504 99.3114C110.216 98.8879 111.375 98.8803 112.093 99.2945ZM109.18 99.1239C110.07 98.5945 111.518 98.585 112.415 99.1028L117.286 101.915C118.183 102.433 118.189 103.282 117.299 103.811C116.409 104.341 114.96 104.35 114.063 103.833L109.192 101.02C108.295 100.502 108.29 99.6534 109.18 99.1239ZM103.324 94.2325L108.196 97.045C108.913 97.4593 108.918 98.1384 108.206 98.562C107.494 98.9856 106.335 98.9931 105.618 98.5789L100.746 95.7664C100.029 95.3522 100.024 94.6731 100.736 94.2495C101.448 93.8259 102.607 93.8183 103.324 94.2325ZM100.412 94.062C101.302 93.5325 102.75 93.523 103.647 94.0408L108.518 96.8533C109.415 97.3711 109.421 98.22 108.531 98.7495C107.641 99.2789 106.192 99.2884 105.295 98.7707L100.424 95.9582C99.5272 95.4404 99.5216 94.5914 100.412 94.062ZM104.328 99.3456L99.4566 96.5331C98.7392 96.1189 97.5804 96.1265 96.8685 96.5501C96.1565 96.9736 96.161 97.6528 96.8784 98.067L101.75 100.879C102.467 101.294 103.626 101.286 104.338 100.863C105.05 100.439 105.045 99.7598 104.328 99.3456ZM99.7789 96.3414C98.8821 95.8236 97.4337 95.8331 96.5437 96.3626C95.6538 96.892 95.6593 97.741 96.5561 98.2587L101.428 101.071C102.324 101.589 103.773 101.58 104.663 101.05C105.553 100.521 105.547 99.6717 104.65 99.1539L99.7789 96.3414ZM108.225 101.595L113.096 104.408C113.814 104.822 113.818 105.501 113.106 105.925C112.394 106.348 111.236 106.356 110.518 105.942L105.647 103.129C104.929 102.715 104.925 102.036 105.637 101.612C106.349 101.189 107.507 101.181 108.225 101.595ZM105.312 101.425C106.202 100.895 107.65 100.886 108.547 101.404L113.419 104.216C114.315 104.734 114.321 105.583 113.431 106.112C112.541 106.642 111.093 106.651 110.196 106.134L105.324 103.321C104.428 102.803 104.422 101.954 105.312 101.425ZM100.46 101.647L95.5891 98.8341C94.8716 98.4199 93.7129 98.4275 93.0009 98.851C92.2889 99.2746 92.2934 99.9538 93.0108 100.368L97.8822 103.18C98.5997 103.595 99.7584 103.587 100.47 103.164C101.182 102.74 101.178 102.061 100.46 101.647ZM95.9113 98.6424C95.0145 98.1246 93.5661 98.1341 92.6761 98.6635C91.7862 99.193 91.7918 100.042 92.6886 100.56L97.5599 103.372C98.4567 103.89 99.9052 103.88 100.795 103.351C101.685 102.822 101.68 101.973 100.783 101.455L95.9113 98.6424ZM104.358 103.896L109.229 106.709C109.947 107.123 109.951 107.802 109.239 108.226C108.527 108.649 107.368 108.657 106.651 108.243L101.78 105.43C101.062 105.016 101.058 104.337 101.77 103.913C102.482 103.49 103.64 103.482 104.358 103.896ZM101.445 103.726C102.335 103.196 103.783 103.187 104.68 103.705L109.551 106.517C110.448 107.035 110.454 107.884 109.564 108.413C108.674 108.943 107.225 108.952 106.329 108.435L101.457 105.622C100.56 105.104 100.555 104.255 101.445 103.726Z" fill="url(#paint4_linear_301_2825)"/>
</g>
<g filter="url(#filter3_i_301_2825)">
<path d="M164.319 44.1903L165.046 43.758L166.155 44.2089L172.805 40.2527L170.887 39.1454L169.553 39.7412L168.693 39.2446L170.717 38.0402L177.75 42.1003L175.725 43.3046L174.877 42.8148L175.867 42.021L173.949 40.9137L167.3 44.8699L168.086 45.5129L167.359 45.9452L164.319 44.1903ZM171.493 48.474C170.912 48.1384 170.545 47.7687 170.391 47.3647C170.246 46.9607 170.297 46.5509 170.545 46.1353C170.797 45.7174 171.231 45.3254 171.846 44.9594L171.973 44.8839C172.588 44.5179 173.249 44.2591 173.954 44.1074C174.663 43.9535 175.363 43.9161 176.055 43.9953C176.75 44.0767 177.385 44.2829 177.958 44.614C178.539 44.9496 178.902 45.3193 179.048 45.7233C179.197 46.1296 179.148 46.5405 178.9 46.9561C178.651 47.3717 178.218 47.7637 177.599 48.132L177.472 48.2075C176.853 48.5757 176.189 48.8369 175.48 48.9908C174.774 49.1425 174.078 49.1776 173.39 49.0961C172.703 49.0146 172.07 48.8073 171.493 48.474ZM172.381 47.9456C172.923 48.2587 173.551 48.3689 174.265 48.276C174.978 48.1831 175.666 47.9399 176.327 47.5464L176.454 47.471C176.892 47.2102 177.219 46.9411 177.433 46.6637C177.655 46.3862 177.74 46.1176 177.688 45.8578C177.64 45.5957 177.432 45.3584 177.064 45.1458C176.7 44.9356 176.294 44.8183 175.846 44.7941C175.402 44.7676 174.945 44.8215 174.475 44.9558C174.009 45.0878 173.556 45.2842 173.118 45.545L172.991 45.6204C172.33 46.0139 171.923 46.4192 171.772 46.8365C171.624 47.256 171.827 47.6257 172.381 47.9456ZM174.352 49.9828L175.079 49.5505L176.188 50.0014L180.646 47.349L179.86 46.706L180.592 46.2703L182.568 47.4111L181.831 47.9385C182.328 47.8787 182.817 47.8925 183.296 47.9799C183.775 48.0672 184.224 48.2317 184.642 48.4733C185.061 48.7149 185.323 48.979 185.429 49.2656C185.539 49.5544 185.477 49.8569 185.244 50.1728C185.795 50.0765 186.338 50.0605 186.871 50.1249C187.404 50.1892 187.887 50.3467 188.321 50.5972C188.964 50.9686 189.253 51.392 189.186 51.8675C189.124 52.3407 188.654 52.8381 187.778 53.3597L184.934 55.0513L185.72 55.6943L184.994 56.1266L181.948 54.3684L182.675 53.936L183.784 54.3869L186.638 52.6884C187.254 52.3224 187.582 52.0024 187.622 51.7284C187.667 51.4522 187.48 51.1932 187.061 50.9516C186.662 50.7212 186.2 50.619 185.676 50.6451C185.159 50.6711 184.669 50.7987 184.207 51.028L181.134 52.8568L181.919 53.4998L181.193 53.9321L178.153 52.1773L178.88 51.7449L179.989 52.1958L182.843 50.4974C183.428 50.1497 183.744 49.832 183.793 49.5444C183.849 49.2567 183.669 48.9932 183.255 48.7538C182.906 48.5525 182.548 48.4293 182.181 48.3842C181.814 48.3391 181.442 48.3585 181.064 48.4424L177.333 50.6624L178.118 51.3054L177.392 51.7377L174.352 49.9828ZM186.948 57.2551L187.675 56.8227L188.784 57.2736L195.399 53.338L194.613 52.695L195.34 52.2627L199.111 54.4403C200.034 54.9727 200.537 55.5022 200.621 56.0288C200.71 56.5531 200.381 57.0371 199.635 57.4808C199.058 57.824 198.446 58.018 197.798 58.063C197.15 58.1079 196.499 58.0206 195.845 57.8009L194.206 60.4517L194.689 60.8524L193.945 61.295L192.533 60.4796L194.62 57.249L192.789 56.2327L189.929 57.9346L190.714 58.5776L189.988 59.01L186.948 57.2551ZM193.683 55.7009L195.246 56.6035C195.886 56.9726 196.472 57.169 197.005 57.1927C197.537 57.2163 198.036 57.0897 198.502 56.813C198.944 56.5499 199.154 56.2612 199.133 55.9469C199.111 55.6326 198.808 55.3065 198.223 54.9688L196.544 53.999L193.683 55.7009ZM193.97 61.3089L194.696 60.8766L195.805 61.3275L200.263 58.6752L199.477 58.0322L200.21 57.5964L202.302 58.8043L196.95 61.9885L197.736 62.6315L197.009 63.0638L193.97 61.3089ZM202.639 57.1936L203.856 56.4697L205.059 57.1642L203.842 57.8882L202.639 57.1936ZM199.196 64.4685C198.685 64.1732 198.37 63.845 198.252 63.4838C198.141 63.1226 198.214 62.7522 198.47 62.3727C198.727 61.9932 199.154 61.6251 199.754 61.2682L199.875 61.1962C200.544 60.7982 201.228 60.5052 201.925 60.3174C202.622 60.1296 203.294 60.0596 203.938 60.1074C204.587 60.153 205.169 60.3245 205.685 60.622C206.057 60.8367 206.315 61.0669 206.459 61.3126C206.611 61.5582 206.659 61.8158 206.603 62.0853L209.147 60.5722L208.361 59.9292L209.093 59.4934L211.185 60.7014L203.077 65.5256L203.862 66.1686L203.136 66.601L201.195 65.4803L201.846 64.9839C200.85 65.0855 199.967 64.9137 199.196 64.4685ZM200.41 64.0873C200.751 64.2841 201.114 64.4039 201.5 64.4466C201.887 64.4894 202.296 64.4709 202.728 64.3911L205.623 62.6686C205.737 62.4281 205.753 62.1938 205.67 61.9659C205.588 61.7379 205.382 61.5289 205.052 61.3388C204.506 61.0233 203.876 60.9234 203.163 61.0389C202.454 61.1567 201.739 61.4294 201.02 61.8572L200.899 61.9293C200.272 62.3021 199.899 62.6767 199.778 63.053C199.657 63.4294 199.867 63.7741 200.41 64.0873ZM205.323 68.0057C204.811 67.7104 204.497 67.3821 204.378 67.0209C204.268 66.6597 204.341 66.2893 204.597 65.9099C204.853 65.5304 205.281 65.1622 205.881 64.8054L206.002 64.7333C206.671 64.3353 207.354 64.0424 208.052 63.8546C208.749 63.6668 209.42 63.5968 210.065 63.6446C210.714 63.6901 211.296 63.8616 211.811 64.1591C212.183 64.3739 212.441 64.6041 212.586 64.8497C212.738 65.0953 212.786 65.3529 212.73 65.6225L215.273 64.1093L214.487 63.4663L215.22 63.0306L217.312 64.2385L209.203 69.0628L209.989 69.7058L209.262 70.1381L207.321 69.0174L207.972 68.5211C206.977 68.6226 206.094 68.4508 205.323 68.0057ZM206.536 67.6244C206.877 67.8213 207.241 67.9411 207.627 67.9838C208.013 68.0265 208.422 68.008 208.854 67.9282L211.749 66.2058C211.863 65.9652 211.879 65.731 211.797 65.503C211.714 65.2751 211.508 65.066 211.179 64.8759C210.633 64.5605 210.003 64.4605 209.289 64.5761C208.58 64.6938 207.866 64.9666 207.147 65.3943L207.026 65.4664C206.399 65.8392 206.025 66.2138 205.904 66.5902C205.783 66.9665 205.994 67.3113 206.536 67.6244ZM209.042 70.0111L209.769 69.5788L210.878 70.0297L218.093 65.7372L217.307 65.0942L218.039 64.6585L220.132 65.8664L212.023 70.6907L212.808 71.3337L212.082 71.766L209.042 70.0111ZM214.577 73.3485C213.996 73.013 213.621 72.6433 213.452 72.2395C213.287 71.8333 213.321 71.4225 213.554 71.007C213.791 70.5937 214.217 70.204 214.832 69.838L215.086 69.6871C215.678 69.3348 216.328 69.0907 217.038 68.9549C217.755 68.819 218.451 68.7884 219.127 68.8632C219.811 68.9379 220.395 69.115 220.879 69.3946C221.724 69.8823 222.109 70.4024 222.036 70.9548C221.966 71.5096 221.508 72.0385 220.662 72.5418L219.953 72.9638L215.873 70.6083L215.827 70.6154C215.239 70.979 214.898 71.3613 214.804 71.7623C214.714 72.1611 214.934 72.5137 215.465 72.8201C215.853 73.0438 216.245 73.2075 216.644 73.3113C217.05 73.4149 217.455 73.4711 217.861 73.4797L217.57 74.1773C217.13 74.1757 216.649 74.1121 216.127 73.9865C215.613 73.861 215.096 73.6483 214.577 73.3485ZM216.796 70.1001L219.696 71.7744L219.846 71.6852C220.292 71.4198 220.545 71.1286 220.605 70.8115C220.665 70.4944 220.458 70.1994 219.985 69.9265C219.602 69.705 219.113 69.6121 218.519 69.6476C217.928 69.6809 217.36 69.8238 216.814 70.0762L216.796 70.1001Z" fill="url(#paint5_linear_301_2825)"/>
</g>
</g>
</g>
<rect x="0.00536142" y="0.819147" width="148.38" height="242.13" rx="12.9338" transform="matrix(0.866025 0.5 -0.859406 0.511293 210.185 1.39764)" stroke="url(#paint6_linear_301_2825)" stroke-width="1.62" shape-rendering="crispEdges"/>
</g>
<defs>
<filter id="filter0_bdi_301_2825" x="-8.49387" y="-7.49375" width="356.372" height="216.615" filterUnits="userSpaceOnUse" color-interpolation-filters="sRGB">
<feFlood flood-opacity="0" result="BackgroundImageFix"/>
<feGaussianBlur in="BackgroundImageFix" stdDeviation="4.24688"/>
<feComposite in2="SourceAlpha" operator="in" result="effect1_backgroundBlur_301_2825"/>
<feColorMatrix in="SourceAlpha" type="matrix" values="0 0 0 0 0 0 0 0 0 0 0 0 0 0 0 0 0 0 127 0" result="hardAlpha"/>
<feOffset dy="0.62"/>
<feGaussianBlur stdDeviation="0.5"/>
<feComposite in2="hardAlpha" operator="out"/>
<feColorMatrix type="matrix" values="0 0 0 0 0 0 0 0 0 0 0 0 0 0 0 0 0 0 0.5 0"/>
<feBlend mode="normal" in2="effect1_backgroundBlur_301_2825" result="effect2_dropShadow_301_2825"/>
<feBlend mode="normal" in="SourceGraphic" in2="effect2_dropShadow_301_2825" result="shape"/>
<feColorMatrix in="SourceAlpha" type="matrix" values="0 0 0 0 0 0 0 0 0 0 0 0 0 0 0 0 0 0 127 0" result="hardAlpha"/>
<feOffset dx="0.9825" dy="-0.60675"/>
<feGaussianBlur stdDeviation="0.794842"/>
<feComposite in2="hardAlpha" operator="arithmetic" k2="-1" k3="1"/>
<feColorMatrix type="matrix" values="0 0 0 0 0.980392 0 0 0 0 0.980392 0 0 0 0 0.980392 0 0 0 0.22 0"/>
<feBlend mode="normal" in2="shape" result="effect3_innerShadow_301_2825"/>
</filter>
<filter id="filter1_i_301_2825" x="85.9315" y="90.4443" width="37.5052" height="22.5692" filterUnits="userSpaceOnUse" color-interpolation-filters="sRGB">
<feFlood flood-opacity="0" result="BackgroundImageFix"/>
<feBlend mode="normal" in="SourceGraphic" in2="BackgroundImageFix" result="shape"/>
<feColorMatrix in="SourceAlpha" type="matrix" values="0 0 0 0 0 0 0 0 0 0 0 0 0 0 0 0 0 0 127 0" result="hardAlpha"/>
<feOffset dx="-0.60675" dy="0.9825"/>
<feGaussianBlur stdDeviation="1.28631"/>
<feComposite in2="hardAlpha" operator="arithmetic" k2="-1" k3="1"/>
<feColorMatrix type="matrix" values="0 0 0 0 0.24 0 0 0 0 0.228 0 0 0 0 0.16 0 0 0 0.5 0"/>
<feBlend mode="normal" in2="shape" result="effect1_innerShadow_301_2825"/>
</filter>
<filter id="filter2_i_301_2825" x="88.4333" y="90.5731" width="34.698" height="20.3473" filterUnits="userSpaceOnUse" color-interpolation-filters="sRGB">
<feFlood flood-opacity="0" result="BackgroundImageFix"/>
<feBlend mode="normal" in="SourceGraphic" in2="BackgroundImageFix" result="shape"/>
<feColorMatrix in="SourceAlpha" type="matrix" values="0 0 0 0 0 0 0 0 0 0 0 0 0 0 0 0 0 0 127 0" result="hardAlpha"/>
<feOffset dx="1.59" dy="-0.981721"/>
<feGaussianBlur stdDeviation="0.794842"/>
<feComposite in2="hardAlpha" operator="arithmetic" k2="-1" k3="1"/>
<feColorMatrix type="matrix" values="0 0 0 0 0.48 0 0 0 0 0.456 0 0 0 0 0.32 0 0 0 0.14 0"/>
<feBlend mode="normal" in2="shape" result="effect1_innerShadow_301_2825"/>
</filter>
<filter id="filter3_i_301_2825" x="162.199" y="37.6834" width="63.8963" height="37.0509" filterUnits="userSpaceOnUse" color-interpolation-filters="sRGB">
<feFlood flood-opacity="0" result="BackgroundImageFix"/>
<feBlend mode="normal" in="SourceGraphic" in2="BackgroundImageFix" result="shape"/>
<feColorMatrix in="SourceAlpha" type="matrix" values="0 0 0 0 0 0 0 0 0 0 0 0 0 0 0 0 0 0 127 0" result="hardAlpha"/>
<feOffset dx="-0.2325" dy="0.375"/>
<feComposite in2="hardAlpha" operator="arithmetic" k2="-1" k3="1"/>
<feColorMatrix type="matrix" values="0 0 0 0 0.68 0 0 0 0 0.656 0 0 0 0 0.52 0 0 0 1 0"/>
<feBlend mode="normal" in2="shape" result="effect1_innerShadow_301_2825"/>
</filter>
<linearGradient id="paint0_linear_301_2825" x1="150" y1="0" x2="-8.23409e-06" y2="243.75" gradientUnits="userSpaceOnUse">
<stop stop-color="#D6D3C2" stop-opacity="0.2"/>
<stop offset="1" stop-color="#5C5C5C" stop-opacity="0.14"/>
</linearGradient>
<linearGradient id="paint1_linear_301_2825" x1="339.384" y1="76" x2="119.599" y2="212.013" gradientUnits="userSpaceOnUse">
<stop stop-color="#FAFAFA"/>
<stop offset="1" stop-color="#DBDBDB"/>
</linearGradient>
<linearGradient id="paint2_linear_301_2825" x1="-2.28571" y1="-3.77404e-07" x2="26.3569" y2="18.0945" gradientUnits="userSpaceOnUse">
<stop stop-color="#D6D3C2"/>
<stop offset="0.212761" stop-color="#B6B5AF"/>
<stop offset="0.548384" stop-color="#E2E0D4"/>
<stop offset="0.914316" stop-color="#9E9D94"/>
<stop offset="1" stop-color="#ADA785"/>
</linearGradient>
<linearGradient id="paint3_linear_301_2825" x1="24.1371" y1="-2.94708e-07" x2="-0.438303" y2="18.1567" gradientUnits="userSpaceOnUse">
<stop stop-color="#D6D3C2"/>
<stop offset="1" stop-color="#3D3A29" stop-opacity="0"/>
</linearGradient>
<linearGradient id="paint4_linear_301_2825" x1="118.91" y1="102.853" x2="93.0934" y2="93.8225" gradientUnits="userSpaceOnUse">
<stop stop-color="#BAB8AB"/>
<stop offset="1" stop-color="#A3A08F"/>
</linearGradient>
<linearGradient id="paint5_linear_301_2825" x1="160.903" y1="43.2252" x2="189.205" y2="21.0366" gradientUnits="userSpaceOnUse">
<stop stop-color="#ADA785"/>
<stop offset="1" stop-color="#D6D3C2"/>
</linearGradient>
<linearGradient id="paint6_linear_301_2825" x1="150" y1="0" x2="-8.23409e-06" y2="243.75" gradientUnits="userSpaceOnUse">
<stop stop-color="#FAFAFA"/>
<stop offset="1" stop-color="#5C5C5C" stop-opacity="0.08"/>
</linearGradient>
<clipPath id="clip0_301_2825">
<rect width="150" height="243.75" rx="13.7438" transform="matrix(0.866025 0.5 -0.859406 0.511293 209.48 1)" fill="white"/>
</clipPath>
<clipPath id="clip1_301_2825">
<path d="M190.582 12.2433C197.197 8.3078 200.504 6.34003 204.328 5.58584C207.692 4.92244 211.32 4.8987 214.692 5.51802C218.525 6.22208 221.858 8.14639 228.524 11.995L320.34 65.005C327.006 68.8536 330.339 70.7779 331.598 73.0138C332.705 74.9805 332.719 77.1068 331.638 79.0879C330.408 81.34 327.101 83.3078 320.486 87.2433L178.245 171.867L48.3415 96.8674L190.582 12.2433Z" fill="white"/>
</clipPath>
</defs>
</svg>
