<svg width="536" height="340" viewBox="0 0 536 340" fill="none" xmlns="http://www.w3.org/2000/svg">
<g filter="url(#filter0_f_301_3013)">
<circle cx="378" cy="428" r="128" fill="#FFD700"/>
</g>
<g filter="url(#filter1_bi_301_3013)">
<rect x="216" width="279.786" height="606.627" rx="41.9679" fill="url(#paint0_linear_301_3013)"/>
<rect x="216" width="279.786" height="606.627" rx="41.9679" fill="black" fill-opacity="0.6"/>
<path d="M333.548 65.9572V65.3548L334.327 65.2209V59.7365L333.548 59.6026V58.9954H336.551C337.277 58.9954 337.845 59.1532 338.253 59.4687C338.664 59.7811 338.87 60.2513 338.87 60.8793C338.87 61.1885 338.771 61.4658 338.573 61.7113C338.379 61.9535 338.121 62.1336 337.799 62.2516C338.216 62.3408 338.546 62.5464 338.788 62.8684C339.031 63.1903 339.152 63.5649 339.152 63.992C339.152 64.6296 338.945 65.1173 338.53 65.4552C338.116 65.7899 337.555 65.9572 336.847 65.9572H333.548ZM335.269 61.9551H336.794C337.132 61.9551 337.405 61.8579 337.612 61.6634C337.822 61.4658 337.928 61.198 337.928 60.8601C337.928 60.484 337.81 60.2035 337.574 60.0186C337.338 59.8305 336.997 59.7365 336.551 59.7365H335.269V61.9551ZM335.269 65.2209H336.847C337.277 65.2209 337.611 65.1157 337.846 64.9053C338.085 64.6917 338.205 64.3905 338.205 64.0016C338.205 63.5936 338.105 63.2732 337.904 63.0405C337.706 62.8078 337.402 62.6915 336.991 62.6915H335.269V65.2209ZM339.621 65.9572V65.3548L340.137 65.283L342.571 58.9954H343.379L345.77 65.283L346.281 65.3548V65.9572H344.282V65.3548L344.808 65.2639L344.349 63.9825H341.562L341.088 65.2639L341.614 65.3548V65.9572H339.621ZM341.853 63.1935H344.063L343.039 60.3629L342.982 60.2051H342.953L342.896 60.3629L341.853 63.1935ZM346.812 65.9572V65.3548L347.591 65.2209V59.7365L346.812 59.6026V58.9954H349.313V59.6026L348.533 59.7365V65.2352H350.996L351.106 64.1355H351.828V65.9572H346.812ZM352.445 65.9572V65.3548L352.961 65.283L355.395 58.9954H356.203L358.594 65.283L359.106 65.3548V65.9572H357.107V65.3548L357.633 65.2639L357.174 63.9825H354.386L353.913 65.2639L354.439 65.3548V65.9572H352.445ZM354.678 63.1935H356.887L355.864 60.3629L355.806 60.2051H355.778L355.72 60.3629L354.678 63.1935ZM359.646 65.9572V65.3548L360.425 65.2209V59.7365L359.646 59.6026V58.9954H361.377L364.791 64.4224L364.82 64.4128V59.7365L363.964 59.6026V58.9954H366.464V59.6026L365.685 59.7365V65.9572H364.824L361.32 60.5015L361.291 60.5111V65.2209L362.147 65.3548V65.9572H359.646ZM370.199 66.0576C369.501 66.0576 368.918 65.9046 368.449 65.5986C367.984 65.2926 367.633 64.8734 367.397 64.3411C367.164 63.8087 367.048 63.2047 367.048 62.5289V62.4285C367.048 61.7463 367.171 61.1407 367.416 60.6115C367.662 60.0792 368.014 59.66 368.473 59.354C368.932 59.048 369.48 58.895 370.118 58.895C370.567 58.895 370.978 58.9651 371.351 59.1053C371.724 59.2456 372.033 59.4241 372.279 59.6409V61.1423H371.528L371.428 60.0425C371.106 59.7971 370.668 59.6743 370.113 59.6743C369.657 59.6743 369.271 59.7923 368.956 60.0282C368.64 60.2609 368.401 60.5828 368.239 60.994C368.076 61.4052 367.995 61.8802 367.995 62.4189V62.5289C367.995 63.4055 368.188 64.0861 368.573 64.5706C368.959 65.0519 369.512 65.2926 370.232 65.2926C370.456 65.2926 370.674 65.2655 370.888 65.2113C371.101 65.1571 371.278 65.087 371.418 65.0009L371.523 64.0303H372.26V65.5412C371.998 65.7038 371.686 65.8313 371.323 65.9238C370.959 66.013 370.585 66.0576 370.199 66.0576ZM373.025 65.9572V65.3548L373.804 65.2209V59.7365L373.025 59.6026V58.9954H378.18V60.6689H377.424L377.319 59.7222H374.746V61.9886H377.314V62.7297H374.746V65.2496H377.472L377.577 64.2885H378.328V65.9572H373.025Z" fill="#666666"/>
<path d="M297.064 105.146V102.78C296.063 102.713 295.166 102.48 294.373 102.079C293.58 101.67 292.958 101.078 292.508 100.302C292.065 99.5255 291.857 98.5492 291.882 97.3726L291.907 97.31H293.309C293.309 98.303 293.501 99.1083 293.885 99.7258C294.277 100.335 294.798 100.781 295.449 101.065C296.109 101.349 296.835 101.491 297.627 101.491C298.854 101.491 299.826 101.165 300.544 100.514C301.27 99.8635 301.633 99.0415 301.633 98.0485C301.633 97.1222 301.332 96.367 300.732 95.7829C300.139 95.1987 299.079 94.6355 297.552 94.093C295.808 93.5423 294.519 92.8789 293.684 92.1028C292.858 91.3267 292.445 90.2377 292.445 88.8358C292.445 87.4756 292.862 86.374 293.697 85.5312C294.54 84.68 295.675 84.2002 297.102 84.0917V81.5507H298.391V84.0917C299.843 84.2336 300.974 84.7844 301.783 85.744C302.592 86.6953 302.989 87.993 302.972 89.6369L302.885 89.6619H301.52C301.52 88.3935 301.182 87.3629 300.506 86.5702C299.839 85.769 298.908 85.3685 297.715 85.3685C296.48 85.3685 295.541 85.6939 294.898 86.3448C294.264 86.9874 293.947 87.8052 293.947 88.7982C293.947 89.4408 294.064 89.9957 294.298 90.463C294.54 90.922 294.957 91.3351 295.549 91.7022C296.15 92.0611 296.989 92.4199 298.065 92.7787C299.793 93.3629 301.07 94.0346 301.896 94.794C302.722 95.5534 303.135 96.6299 303.135 98.0235C303.135 99.4087 302.701 100.519 301.833 101.353C300.974 102.188 299.809 102.663 298.341 102.78V105.146H297.064ZM310.996 102.805C309.986 102.805 309.085 102.617 308.292 102.242C307.499 101.866 306.878 101.311 306.427 100.577C305.985 99.8343 305.776 98.9164 305.801 97.8232L305.826 97.7481H307.165C307.165 98.9748 307.512 99.9178 308.204 100.577C308.905 101.228 309.836 101.553 310.996 101.553C312.348 101.553 313.357 101.144 314.025 100.327C314.701 99.5005 315.039 98.3114 315.039 96.7592C315.039 95.3907 314.701 94.2975 314.025 93.4797C313.349 92.6536 312.41 92.2405 311.209 92.2405C310.04 92.2405 309.147 92.4282 308.53 92.8038C307.921 93.1793 307.483 93.7426 307.216 94.4936L305.989 94.2808L307.003 84.317H316.153V87.2711H314.939L314.826 85.6814H308.292L307.616 92.2154C308.067 91.7982 308.567 91.4769 309.118 91.2516C309.677 91.018 310.424 90.8886 311.359 90.8636C312.393 90.8469 313.299 91.0764 314.075 91.552C314.859 92.0277 315.469 92.712 315.903 93.6049C316.336 94.4894 316.553 95.5325 316.553 96.7342C316.553 98.5784 316.09 100.051 315.164 101.153C314.238 102.254 312.848 102.805 310.996 102.805ZM324.314 102.805C323.672 102.805 323.021 102.738 322.361 102.605C321.702 102.48 321.076 102.292 320.484 102.042L320.759 100.79C321.335 101.057 321.894 101.253 322.437 101.378C322.987 101.495 323.613 101.553 324.314 101.553C325.699 101.553 326.788 101.036 327.581 100.001C328.374 98.9581 328.779 97.3684 328.795 95.2321L328.77 94.3684C328.361 95.1195 327.786 95.7036 327.043 96.1208C326.309 96.5381 325.482 96.7467 324.564 96.7467C323.455 96.7467 322.482 96.4838 321.648 95.9581C320.822 95.4324 320.179 94.7064 319.72 93.7801C319.261 92.8455 319.032 91.769 319.032 90.5507C319.032 89.324 319.274 88.2224 319.758 87.2461C320.242 86.2614 320.901 85.4853 321.736 84.9179C322.578 84.3421 323.526 84.0542 324.577 84.0542C326.354 84.0542 327.769 84.6341 328.82 85.7941C329.872 86.954 330.398 88.7064 330.398 91.0513V94.8816C330.398 97.5353 329.847 99.5214 328.745 100.84C327.644 102.15 326.167 102.805 324.314 102.805ZM324.564 95.495C325.649 95.495 326.555 95.2154 327.281 94.6563C328.015 94.0889 328.532 93.3962 328.833 92.5785V90.9387C328.833 89.0444 328.462 87.6341 327.719 86.7078C326.976 85.7816 325.95 85.3184 324.64 85.3184C323.855 85.3184 323.158 85.5521 322.549 86.0194C321.94 86.4867 321.46 87.1167 321.11 87.9095C320.759 88.7023 320.584 89.5826 320.584 90.5507C320.584 91.4853 320.747 92.3281 321.072 93.0791C321.398 93.8218 321.857 94.4101 322.449 94.8441C323.05 95.278 323.755 95.495 324.564 95.495ZM333.652 102.542V101.453L336.932 101.29V85.8692L333.327 86.4074V85.356L338.434 84.267V101.29L341.701 101.453V102.542H333.652ZM344.279 106.06L343.39 105.409C343.783 104.858 344.071 104.311 344.254 103.769C344.446 103.226 344.542 102.63 344.542 101.979V100.189H346.044V101.941C346.044 102.717 345.886 103.468 345.568 104.194C345.26 104.92 344.83 105.542 344.279 106.06ZM354.856 102.805C353.73 102.805 352.733 102.521 351.865 101.954C350.997 101.378 350.317 100.548 349.824 99.463C349.332 98.3781 349.086 97.0596 349.086 95.5075V92.1654C349.086 90.4046 349.349 88.9234 349.874 87.7217C350.409 86.5117 351.139 85.598 352.065 84.9805C353 84.3629 354.072 84.0542 355.282 84.0542C355.908 84.0542 356.525 84.1251 357.134 84.267C357.744 84.4005 358.282 84.6008 358.749 84.8678L358.386 86.0695C357.911 85.8108 357.439 85.623 356.972 85.5062C356.504 85.381 355.941 85.3184 355.282 85.3184C353.905 85.3184 352.791 85.8441 351.94 86.8956C351.089 87.9387 350.651 89.5242 350.625 91.6522L350.651 92.8538C351.076 92.1612 351.677 91.5979 352.453 91.164C353.229 90.7217 354.105 90.5006 355.082 90.5006C356.166 90.5006 357.105 90.7593 357.898 91.2767C358.691 91.794 359.3 92.5117 359.726 93.4296C360.159 94.3476 360.376 95.4074 360.376 96.609C360.376 97.8107 360.143 98.8788 359.675 99.8134C359.217 100.74 358.57 101.47 357.735 102.004C356.909 102.538 355.949 102.805 354.856 102.805ZM354.856 101.553C355.666 101.553 356.371 101.332 356.972 100.89C357.581 100.448 358.048 99.8552 358.374 99.1125C358.707 98.3614 358.874 97.527 358.874 96.609C358.874 95.1487 358.52 93.9679 357.81 93.0666C357.101 92.1654 356.091 91.7148 354.781 91.7148C354.064 91.7148 353.404 91.8608 352.803 92.1529C352.203 92.4366 351.706 92.8205 351.314 93.3045C350.922 93.7885 350.68 94.3309 350.588 94.9317V95.6327C350.588 97.527 350.984 98.9873 351.777 100.014C352.57 101.04 353.596 101.553 354.856 101.553ZM363.068 102.542V101.453L366.347 101.29V85.8692L362.742 86.4074V85.356L367.849 84.267V101.29L371.116 101.453V102.542H363.068ZM379.077 102.805C377.325 102.805 375.906 102.367 374.821 101.491C373.745 100.615 373.207 99.3545 373.207 97.7105C373.207 96.6424 373.536 95.7078 374.196 94.9067C374.863 94.0972 375.756 93.5256 376.874 93.1918C375.906 92.8663 375.138 92.3365 374.571 91.6021C374.004 90.8594 373.72 89.9957 373.72 89.011C373.72 87.4422 374.212 86.2238 375.197 85.356C376.19 84.4881 377.475 84.0542 379.052 84.0542C380.095 84.0542 381.017 84.2503 381.819 84.6425C382.628 85.0347 383.262 85.6021 383.721 86.3448C384.188 87.0792 384.422 87.9679 384.422 89.011C384.422 89.9957 384.13 90.8594 383.546 91.6021C382.962 92.3365 382.19 92.8663 381.23 93.1918C382.34 93.5339 383.233 94.1056 383.909 94.9067C384.593 95.7078 384.935 96.6424 384.935 97.7105C384.935 98.8037 384.685 99.73 384.184 100.489C383.684 101.249 382.991 101.825 382.106 102.217C381.23 102.609 380.221 102.805 379.077 102.805ZM379.077 92.5659C380.187 92.5659 381.105 92.2405 381.831 91.5896C382.557 90.9387 382.92 90.075 382.92 88.9985C382.92 88.2892 382.749 87.6592 382.407 87.1084C382.065 86.5493 381.602 86.1112 381.017 85.7941C380.433 85.477 379.778 85.3184 379.052 85.3184C377.926 85.3184 377.004 85.6522 376.286 86.3198C375.577 86.9874 375.222 87.8803 375.222 88.9985C375.222 90.0833 375.581 90.9512 376.298 91.6021C377.016 92.2447 377.942 92.5659 379.077 92.5659ZM379.077 101.553C380.346 101.553 381.389 101.215 382.207 100.539C383.024 99.8552 383.433 98.9164 383.433 97.7231C383.433 96.9553 383.241 96.2794 382.857 95.6953C382.474 95.1028 381.952 94.6438 381.293 94.3184C380.634 93.9846 379.887 93.8177 379.052 93.8177C378.209 93.8177 377.458 93.9846 376.799 94.3184C376.148 94.6438 375.635 95.0986 375.259 95.6827C374.892 96.2669 374.709 96.947 374.709 97.7231C374.709 98.9247 375.113 99.8635 375.923 100.539C376.732 101.215 377.784 101.553 379.077 101.553Z" fill="white"/>
<path d="M387.99 102.542V100.502H389.704V102.542H387.99ZM399.23 102.805C397.453 102.805 396.059 102.171 395.049 100.902C394.048 99.6257 393.547 97.8149 393.547 95.4699V91.4018C393.547 89.0486 394.044 87.2377 395.037 85.9693C396.038 84.6926 397.428 84.0542 399.205 84.0542C400.983 84.0542 402.372 84.6926 403.373 85.9693C404.375 87.2377 404.875 89.0486 404.875 91.4018V95.4699C404.875 97.8232 404.379 99.634 403.386 100.902C402.393 102.171 401.008 102.805 399.23 102.805ZM399.23 101.553C400.582 101.553 401.608 101.044 402.309 100.026C403.019 98.9998 403.373 97.552 403.373 95.6827V91.1515C403.373 89.2822 403.019 87.8427 402.309 86.833C401.6 85.8233 400.565 85.3184 399.205 85.3184C397.853 85.3184 396.823 85.8233 396.113 86.833C395.404 87.8427 395.049 89.2822 395.049 91.1515V95.6827C395.049 97.5436 395.408 98.9873 396.126 100.014C396.843 101.04 397.878 101.553 399.23 101.553ZM413.725 102.805C411.948 102.805 410.554 102.171 409.544 100.902C408.543 99.6257 408.042 97.8149 408.042 95.4699V91.4018C408.042 89.0486 408.539 87.2377 409.532 85.9693C410.533 84.6926 411.923 84.0542 413.7 84.0542C415.478 84.0542 416.867 84.6926 417.868 85.9693C418.87 87.2377 419.37 89.0486 419.37 91.4018V95.4699C419.37 97.8232 418.874 99.634 417.881 100.902C416.888 102.171 415.503 102.805 413.725 102.805ZM413.725 101.553C415.077 101.553 416.103 101.044 416.804 100.026C417.514 98.9998 417.868 97.552 417.868 95.6827V91.1515C417.868 89.2822 417.514 87.8427 416.804 86.833C416.095 85.8233 415.06 85.3184 413.7 85.3184C412.348 85.3184 411.318 85.8233 410.608 86.833C409.899 87.8427 409.544 89.2822 409.544 91.1515V95.6827C409.544 97.5436 409.903 98.9873 410.621 100.014C411.338 101.04 412.373 101.553 413.725 101.553Z" fill="#666666"/>
<path fill-rule="evenodd" clip-rule="evenodd" d="M324.004 124.085L327.102 125.142C327.448 125.261 327.681 125.58 327.681 125.937V129.033C327.681 129.972 327.332 130.881 326.699 131.59C326.409 131.915 326.038 132.195 325.562 132.444L323.888 133.323C323.836 133.35 323.778 133.364 323.72 133.364C323.663 133.364 323.605 133.35 323.553 133.323L321.875 132.444C321.399 132.194 321.027 131.914 320.737 131.591C320.104 130.88 319.754 129.971 319.754 129.032C319.754 128.842 319.912 128.688 320.107 128.688C320.302 128.688 320.46 128.842 320.46 129.032C320.46 129.807 320.748 130.555 321.271 131.141C321.503 131.402 321.811 131.63 322.211 131.84L323.72 132.631L325.227 131.841C325.625 131.631 325.933 131.403 326.166 131.141C326.688 130.556 326.975 129.808 326.975 129.033V125.937C326.975 125.871 326.932 125.812 326.868 125.79L323.771 124.733C323.737 124.721 323.699 124.721 323.664 124.733L320.567 125.79C320.503 125.812 320.46 125.871 320.46 125.937V126.823C320.46 127.013 320.302 127.166 320.107 127.166C319.912 127.166 319.754 127.013 319.754 126.823V125.937C319.754 125.58 319.987 125.261 320.333 125.142L323.43 124.085C323.616 124.023 323.82 124.023 324.004 124.085ZM323.385 129.782C323.291 129.782 323.201 129.746 323.135 129.681L322.245 128.816C322.107 128.681 322.107 128.465 322.245 128.331C322.383 128.196 322.606 128.196 322.744 128.331L323.385 128.953L324.969 127.414C325.107 127.28 325.331 127.28 325.468 127.414C325.606 127.548 325.606 127.765 325.468 127.899L323.634 129.681C323.568 129.746 323.478 129.782 323.385 129.782Z" fill="#89D22B"/>
<path d="M334.595 131.192C334.232 131.192 333.882 131.139 333.546 131.032C333.21 130.926 332.889 130.762 332.583 130.54V129.266H333.21L333.345 130.204C333.522 130.313 333.715 130.398 333.923 130.458C334.13 130.518 334.354 130.548 334.595 130.548C335.002 130.548 335.318 130.458 335.542 130.278C335.766 130.095 335.878 129.856 335.878 129.561C335.878 129.288 335.777 129.061 335.574 128.88C335.372 128.7 335.012 128.551 334.492 128.434C333.875 128.292 333.404 128.076 333.078 127.786C332.753 127.494 332.591 127.126 332.591 126.684C332.591 126.372 332.673 126.093 332.837 125.848C333.003 125.602 333.234 125.408 333.529 125.266C333.824 125.124 334.169 125.052 334.562 125.052C334.98 125.052 335.349 125.117 335.669 125.245C335.991 125.371 336.256 125.524 336.464 125.704V126.897H335.837L335.701 126.044C335.579 125.946 335.426 125.864 335.242 125.798C335.059 125.733 334.833 125.7 334.562 125.7C334.215 125.7 333.934 125.789 333.718 125.966C333.505 126.144 333.398 126.379 333.398 126.671C333.398 126.928 333.501 127.139 333.706 127.303C333.91 127.464 334.266 127.607 334.771 127.733C335.4 127.889 335.875 128.119 336.197 128.425C336.523 128.729 336.685 129.104 336.685 129.553C336.685 129.872 336.599 130.156 336.427 130.405C336.255 130.651 336.012 130.844 335.697 130.983C335.386 131.122 335.018 131.192 334.595 131.192ZM339.21 131.192C338.8 131.192 338.444 131.099 338.14 130.913C337.837 130.725 337.602 130.464 337.435 130.13C337.271 129.797 337.189 129.412 337.189 128.975V128.794C337.189 128.374 337.275 127.998 337.448 127.667C337.622 127.334 337.853 127.072 338.14 126.88C338.43 126.686 338.745 126.589 339.087 126.589C339.683 126.589 340.133 126.77 340.439 127.13C340.748 127.491 340.903 127.972 340.903 128.573V129.077H338.025L338.013 129.098C338.021 129.524 338.129 129.875 338.337 130.151C338.545 130.424 338.836 130.561 339.21 130.561C339.483 130.561 339.722 130.523 339.927 130.446C340.135 130.367 340.314 130.259 340.464 130.122L340.78 130.647C340.621 130.8 340.411 130.93 340.148 131.036C339.889 131.14 339.576 131.192 339.21 131.192ZM338.05 128.446H340.095V128.339C340.095 128.022 340.01 127.757 339.841 127.544C339.672 127.331 339.42 127.225 339.087 127.225C338.816 127.225 338.586 127.339 338.394 127.569C338.203 127.796 338.086 128.081 338.042 128.425L338.05 128.446ZM343.534 131.192C343.132 131.192 342.783 131.099 342.485 130.913C342.187 130.725 341.956 130.464 341.792 130.13C341.628 129.797 341.546 129.412 341.546 128.975V128.803C341.546 128.382 341.625 128.005 341.784 127.671C341.942 127.338 342.171 127.074 342.468 126.88C342.766 126.686 343.121 126.589 343.534 126.589C343.892 126.589 344.205 126.648 344.472 126.766C344.743 126.883 344.97 127.044 345.153 127.249L345.173 128.315H344.542L344.403 127.54C344.31 127.445 344.194 127.368 344.054 127.311C343.915 127.253 343.751 127.225 343.563 127.225C343.322 127.225 343.11 127.296 342.927 127.438C342.747 127.58 342.606 127.77 342.505 128.007C342.404 128.245 342.354 128.51 342.354 128.803V128.975C342.354 129.461 342.459 129.848 342.669 130.135C342.88 130.419 343.166 130.561 343.53 130.561C343.803 130.561 344.03 130.486 344.21 130.335C344.39 130.185 344.501 129.979 344.542 129.716H345.268L345.276 129.741C345.262 129.995 345.187 130.233 345.05 130.454C344.914 130.676 344.718 130.854 344.464 130.991C344.213 131.125 343.903 131.192 343.534 131.192ZM347.69 131.192C347.209 131.192 346.833 131.038 346.563 130.729C346.292 130.42 346.157 129.939 346.157 129.286V127.307L345.649 127.192V126.671H346.964V129.294C346.964 129.767 347.034 130.092 347.173 130.27C347.313 130.447 347.53 130.536 347.825 130.536C348.112 130.536 348.348 130.479 348.534 130.364C348.723 130.247 348.865 130.081 348.96 129.868V127.307L348.366 127.192V126.671H349.768V130.475L350.276 130.589V131.106H349.042L348.989 130.45C348.85 130.688 348.669 130.871 348.448 130.999C348.23 131.128 347.977 131.192 347.69 131.192ZM350.67 131.106V130.589L351.338 130.475V127.307L350.67 127.192V126.671H352.059L352.129 127.237L352.137 127.315C352.263 127.088 352.417 126.91 352.6 126.782C352.786 126.654 352.998 126.589 353.235 126.589C353.32 126.589 353.406 126.598 353.493 126.614C353.584 126.628 353.648 126.641 353.686 126.655L353.58 127.405L353.018 127.372C352.805 127.359 352.626 127.408 352.481 127.52C352.336 127.629 352.224 127.777 352.145 127.962V130.475L352.813 130.589V131.106H350.67ZM355.949 131.192C355.539 131.192 355.182 131.099 354.879 130.913C354.576 130.725 354.341 130.464 354.174 130.13C354.01 129.797 353.928 129.412 353.928 128.975V128.794C353.928 128.374 354.014 127.998 354.186 127.667C354.361 127.334 354.592 127.072 354.879 126.88C355.168 126.686 355.484 126.589 355.826 126.589C356.421 126.589 356.872 126.77 357.178 127.13C357.487 127.491 357.641 127.972 357.641 128.573V129.077H354.764L354.752 129.098C354.76 129.524 354.868 129.875 355.076 130.151C355.283 130.424 355.574 130.561 355.949 130.561C356.222 130.561 356.461 130.523 356.666 130.446C356.873 130.367 357.052 130.259 357.203 130.122L357.518 130.647C357.36 130.8 357.149 130.93 356.887 131.036C356.628 131.14 356.315 131.192 355.949 131.192ZM354.789 128.446H356.834V128.339C356.834 128.022 356.749 127.757 356.58 127.544C356.41 127.331 356.159 127.225 355.826 127.225C355.555 127.225 355.324 127.339 355.133 127.569C354.942 127.796 354.824 128.081 354.781 128.425L354.789 128.446ZM360.056 131.106V130.589L360.724 130.475V125.774L360.056 125.659V125.139H362.797C363.434 125.139 363.929 125.302 364.281 125.63C364.636 125.958 364.814 126.39 364.814 126.925C364.814 127.466 364.636 127.9 364.281 128.225C363.929 128.55 363.434 128.712 362.797 128.712H361.531V130.475L362.199 130.589V131.106H360.056ZM361.531 128.081H362.797C363.202 128.081 363.504 127.973 363.703 127.757C363.905 127.539 364.006 127.264 364.006 126.934C364.006 126.603 363.905 126.327 363.703 126.106C363.504 125.884 363.202 125.774 362.797 125.774H361.531V128.081ZM366.564 131.192C366.102 131.192 365.751 131.08 365.511 130.856C365.27 130.629 365.15 130.311 365.15 129.901C365.15 129.48 365.322 129.143 365.666 128.889C366.011 128.632 366.489 128.503 367.101 128.503H367.892V128.069C367.892 127.801 367.81 127.593 367.646 127.446C367.485 127.298 367.257 127.225 366.962 127.225C366.776 127.225 366.615 127.248 366.478 127.294C366.341 127.338 366.217 127.4 366.105 127.479L366.019 128.098H365.396V127.081C365.798 126.753 366.324 126.589 366.974 126.589C367.512 126.589 367.934 126.718 368.24 126.975C368.546 127.231 368.699 127.599 368.699 128.077V130.212C368.699 130.27 368.699 130.326 368.699 130.38C368.702 130.435 368.706 130.49 368.712 130.544L369.142 130.589V131.106H367.982C367.936 130.882 367.907 130.678 367.896 130.495C367.74 130.695 367.545 130.861 367.31 130.995C367.078 131.126 366.829 131.192 366.564 131.192ZM366.683 130.516C366.951 130.516 367.195 130.451 367.416 130.323C367.638 130.195 367.796 130.04 367.892 129.86V129.057H367.072C366.701 129.057 366.422 129.145 366.236 129.323C366.05 129.501 365.957 129.699 365.957 129.917C365.957 130.316 366.199 130.516 366.683 130.516ZM370.499 132.897C370.436 132.897 370.354 132.889 370.253 132.872C370.152 132.859 370.074 132.845 370.019 132.831L370.101 132.196C370.148 132.201 370.212 132.206 370.294 132.208C370.376 132.214 370.432 132.217 370.462 132.217C370.634 132.217 370.773 132.151 370.88 132.02C370.989 131.889 371.09 131.71 371.183 131.483L371.376 131.016L369.806 127.257L369.331 127.192V126.671H371.191V127.192L370.654 127.274L371.519 129.491L371.728 130.069H371.753L372.777 127.274L372.212 127.192V126.671H374.036V127.192L373.577 127.257L371.831 131.786C371.708 132.109 371.544 132.374 371.339 132.581C371.134 132.792 370.854 132.897 370.499 132.897ZM374.253 131.106V130.589L374.921 130.475V127.307L374.253 127.192V126.671H375.646L375.7 127.249C375.842 127.039 376.025 126.876 376.249 126.762C376.473 126.647 376.733 126.589 377.028 126.589C377.323 126.589 377.575 126.658 377.786 126.794C377.999 126.931 378.159 127.136 378.265 127.409C378.405 127.158 378.589 126.958 378.819 126.811C379.048 126.663 379.316 126.589 379.622 126.589C380.075 126.589 380.433 126.745 380.696 127.057C380.958 127.365 381.089 127.831 381.089 128.454V130.475L381.757 130.589V131.106H379.61V130.589L380.278 130.475V128.446C380.278 128.009 380.203 127.7 380.052 127.52C379.902 127.337 379.679 127.245 379.384 127.245C379.103 127.245 378.876 127.345 378.704 127.544C378.534 127.741 378.436 127.99 378.409 128.29V130.475L379.077 130.589V131.106H376.933V130.589L377.601 130.475V128.446C377.601 128.031 377.524 127.727 377.368 127.536C377.215 127.342 376.992 127.245 376.7 127.245C376.454 127.245 376.252 127.296 376.093 127.397C375.935 127.498 375.813 127.64 375.728 127.823V130.475L376.396 130.589V131.106H374.253ZM384.147 131.192C383.737 131.192 383.38 131.099 383.077 130.913C382.774 130.725 382.539 130.464 382.372 130.13C382.208 129.797 382.126 129.412 382.126 128.975V128.794C382.126 128.374 382.212 127.998 382.384 127.667C382.559 127.334 382.79 127.072 383.077 126.88C383.367 126.686 383.682 126.589 384.024 126.589C384.619 126.589 385.07 126.77 385.376 127.13C385.685 127.491 385.839 127.972 385.839 128.573V129.077H382.962L382.95 129.098C382.958 129.524 383.066 129.875 383.274 130.151C383.481 130.424 383.772 130.561 384.147 130.561C384.42 130.561 384.659 130.523 384.864 130.446C385.072 130.367 385.251 130.259 385.401 130.122L385.716 130.647C385.558 130.8 385.348 130.93 385.085 131.036C384.826 131.14 384.513 131.192 384.147 131.192ZM382.987 128.446H385.032V128.339C385.032 128.022 384.947 127.757 384.778 127.544C384.608 127.331 384.357 127.225 384.024 127.225C383.753 127.225 383.522 127.339 383.331 127.569C383.14 127.796 383.022 128.081 382.979 128.425L382.987 128.446ZM386.303 131.106V130.589L386.971 130.475V127.307L386.303 127.192V126.671H387.692L387.749 127.331C387.897 127.096 388.081 126.915 388.303 126.786C388.527 126.655 388.781 126.589 389.065 126.589C389.543 126.589 389.913 126.73 390.176 127.012C390.438 127.29 390.569 127.722 390.569 128.307V130.475L391.237 130.589V131.106H389.094V130.589L389.762 130.475V128.323C389.762 127.932 389.684 127.655 389.528 127.491C389.375 127.327 389.14 127.245 388.823 127.245C388.591 127.245 388.385 127.301 388.204 127.413C388.027 127.525 387.885 127.678 387.778 127.872V130.475L388.446 130.589V131.106H386.303ZM393.045 131.176C392.717 131.176 392.456 131.08 392.262 130.889C392.071 130.695 391.975 130.386 391.975 129.962V127.27H391.274V126.671H391.975V125.602H392.782V126.671H393.746V127.27H392.782V129.962C392.782 130.176 392.825 130.333 392.91 130.434C392.994 130.535 393.108 130.585 393.25 130.585C393.345 130.585 393.452 130.577 393.569 130.561C393.687 130.542 393.778 130.525 393.844 130.512L393.955 131.04C393.837 131.076 393.692 131.107 393.52 131.135C393.351 131.162 393.192 131.176 393.045 131.176Z" fill="#89D22B"/>
<g filter="url(#filter2_bi_301_3013)">
<g clip-path="url(#clip0_301_3013)">
<rect x="362.888" y="146.265" width="153.882" height="249.01" rx="15.8429" fill="url(#paint1_linear_301_3013)"/>
<path d="M362.888 168.824C362.888 160.928 362.888 156.98 364.425 153.964C365.776 151.311 367.933 149.154 370.586 147.802C373.602 146.265 377.551 146.265 385.447 146.265H494.211C502.108 146.265 506.056 146.265 509.072 147.802C511.725 149.154 513.882 151.311 515.234 153.964C516.77 156.98 516.77 160.928 516.77 168.824V338.618H362.888V168.824Z" fill="url(#paint2_linear_301_3013)"/>
<g filter="url(#filter3_i_301_3013)">
<circle cx="406.36" cy="309.765" r="9.07962" stroke="white" stroke-width="1.07605"/>
<circle cx="396.742" cy="309.765" r="9.07962" stroke="white" stroke-width="1.07605"/>
</g>
<g filter="url(#filter4_i_301_3013)">
<rect x="493.388" y="166.462" width="6.24522" height="19.6725" fill="url(#paint3_linear_301_3013)"/>
<rect x="475.027" y="179.839" width="6.29519" height="6.29519" fill="url(#paint4_linear_301_3013)"/>
<rect width="6.40326" height="22.4114" transform="matrix(0.689655 -0.724138 0.689655 0.724138 473.403 169.788)" fill="url(#paint5_linear_301_3013)"/>
</g>
</g>
<rect x="363.2" y="146.577" width="153.259" height="248.386" rx="15.5313" stroke="url(#paint6_linear_301_3013)" stroke-width="0.623224"/>
</g>
<path d="M240.518 186.366C239.82 186.366 239.236 186.213 238.768 185.907C238.302 185.601 237.952 185.181 237.716 184.649C237.483 184.117 237.367 183.513 237.367 182.837V182.737C237.367 182.054 237.489 181.449 237.735 180.92C237.98 180.387 238.332 179.968 238.791 179.662C239.251 179.356 239.799 179.203 240.436 179.203C240.886 179.203 241.297 179.273 241.67 179.413C242.043 179.554 242.352 179.732 242.598 179.949V181.45H241.847L241.746 180.351C241.424 180.105 240.986 179.982 240.432 179.982C239.976 179.982 239.59 180.1 239.274 180.336C238.959 180.569 238.72 180.891 238.557 181.302C238.395 181.713 238.313 182.188 238.313 182.727V182.837C238.313 183.714 238.506 184.394 238.892 184.879C239.278 185.36 239.831 185.601 240.551 185.601C240.774 185.601 240.993 185.574 241.206 185.519C241.42 185.465 241.597 185.395 241.737 185.309L241.842 184.338H242.578V185.849C242.317 186.012 242.005 186.139 241.641 186.232C241.278 186.321 240.903 186.366 240.518 186.366ZM246.351 186.265L244.018 179.987L243.463 179.911V179.303H245.662V179.911L245.027 180.011L246.585 184.439L246.748 184.989H246.777L246.949 184.439L248.565 180.006L247.857 179.911V179.303H250.052V179.911L249.492 179.987L247.159 186.265H246.351ZM253.418 186.265L251.085 179.987L250.53 179.911V179.303H252.73V179.911L252.094 180.011L253.652 184.439L253.815 184.989H253.844L254.016 184.439L255.632 180.006L254.924 179.911V179.303H257.119V179.911L256.56 179.987L254.226 186.265H253.418Z" fill="#666666"/>
<path d="M239.48 205.951C239.088 205.951 238.736 205.879 238.423 205.736C238.114 205.592 237.872 205.38 237.697 205.1C237.521 204.816 237.438 204.465 237.448 204.048L237.457 204.019H238.309C238.309 204.395 238.417 204.688 238.634 204.899C238.854 205.109 239.136 205.214 239.48 205.214C239.878 205.214 240.188 205.074 240.408 204.794C240.628 204.513 240.738 204.129 240.738 203.641C240.738 203.192 240.626 202.825 240.403 202.541C240.183 202.255 239.877 202.111 239.485 202.111C239.115 202.111 238.846 202.167 238.677 202.279C238.511 202.39 238.39 202.561 238.313 202.79L237.529 202.709L237.931 198.888H241.608V200.266H240.9L240.809 199.725H238.729L238.505 201.681C238.648 201.572 238.809 201.483 238.988 201.413C239.169 201.34 239.378 201.3 239.614 201.294C240.255 201.287 240.758 201.496 241.125 201.92C241.495 202.344 241.68 202.914 241.68 203.632C241.68 204.33 241.491 204.891 241.115 205.315C240.742 205.739 240.197 205.951 239.48 205.951ZM244.601 205.951C244.359 205.951 244.11 205.927 243.855 205.879C243.603 205.834 243.377 205.764 243.176 205.669L243.32 204.956C243.514 205.049 243.712 205.116 243.912 205.157C244.116 205.195 244.346 205.214 244.601 205.214C245.054 205.214 245.411 205.042 245.672 204.698C245.937 204.35 246.074 203.793 246.083 203.024L246.064 203.001C245.937 203.214 245.758 203.378 245.529 203.493C245.299 203.608 245.041 203.665 244.754 203.665C244.075 203.665 243.54 203.456 243.147 203.039C242.755 202.618 242.559 202.028 242.559 201.27C242.559 200.785 242.655 200.356 242.846 199.983C243.041 199.61 243.3 199.319 243.626 199.108C243.954 198.895 244.317 198.788 244.716 198.788C245.443 198.788 246.015 199.016 246.432 199.472C246.853 199.924 247.063 200.595 247.063 201.485V202.742C247.063 203.829 246.839 204.636 246.389 205.162C245.943 205.688 245.347 205.951 244.601 205.951ZM244.754 202.924C245.101 202.924 245.39 202.849 245.619 202.699C245.852 202.549 246.02 202.358 246.122 202.126V201.389C246.122 200.149 245.662 199.529 244.744 199.529C244.512 199.529 244.301 199.604 244.113 199.754C243.925 199.901 243.775 200.105 243.664 200.366C243.555 200.627 243.501 200.929 243.501 201.27C243.501 201.77 243.613 202.172 243.836 202.475C244.059 202.774 244.365 202.924 244.754 202.924ZM248.254 205.85V205.248L249.33 205.114V199.897L248.235 199.916V199.328L250.272 198.888V205.114L251.343 205.248V205.85H248.254Z" fill="white"/>
<path d="M237.371 298.441V297.838L238.151 297.704V292.22L237.371 292.086V291.479H242.526V293.152H241.77L241.665 292.206H239.093V294.472H241.66V295.213H239.093V297.733H241.818L241.923 296.772H242.674V298.441H237.371ZM243.611 298.441V297.838L244.214 297.733L246.37 294.907L244.371 292.191L243.764 292.086V291.479H246.021V292.086L245.366 292.148L246.906 294.295L248.369 292.148L247.699 292.086V291.479H249.971V292.086L249.335 292.191L247.446 294.907L249.54 297.733L250.157 297.838V298.441H247.872V297.838L248.546 297.776L246.896 295.514L245.251 297.776L245.887 297.838V298.441H243.611ZM250.932 298.441V297.838L251.711 297.704V292.22L250.932 292.086V291.479H254.131C254.873 291.479 255.45 291.67 255.861 292.053C256.276 292.435 256.483 292.939 256.483 293.564C256.483 294.195 256.276 294.7 255.861 295.079C255.45 295.459 254.873 295.648 254.131 295.648H252.653V297.704L253.432 297.838V298.441H250.932ZM252.653 294.912H254.131C254.602 294.912 254.955 294.786 255.187 294.534C255.423 294.279 255.541 293.959 255.541 293.573C255.541 293.187 255.423 292.865 255.187 292.607C254.955 292.349 254.602 292.22 254.131 292.22H252.653V294.912ZM255.895 298.441V297.475H256.837V298.441H255.895Z" fill="#666666"/>
<path d="M237.381 318.026V317.423L238.16 317.289V311.805L237.381 311.671V311.064H239.112L242.526 316.491L242.554 316.481V311.805L241.699 311.671V311.064H244.199V311.671L243.42 311.805V318.026H242.559L239.054 312.57L239.026 312.58V317.289L239.882 317.423V318.026H237.381ZM247.824 318.126C247.224 318.126 246.708 317.976 246.274 317.677C245.844 317.377 245.513 316.963 245.28 316.433C245.047 315.901 244.931 315.289 244.931 314.597V314.497C244.931 313.805 245.046 313.195 245.275 312.666C245.508 312.133 245.841 311.717 246.274 311.418C246.708 311.115 247.224 310.963 247.824 310.963C248.458 310.963 248.989 311.115 249.416 311.418C249.846 311.717 250.171 312.133 250.391 312.666C250.611 313.195 250.721 313.805 250.721 314.497V314.597C250.721 315.289 250.611 315.901 250.391 316.433C250.171 316.963 249.846 317.377 249.416 317.677C248.989 317.976 248.458 318.126 247.824 318.126ZM247.824 317.342C248.286 317.342 248.659 317.227 248.943 316.998C249.229 316.768 249.44 316.448 249.574 316.037C249.708 315.622 249.775 315.142 249.775 314.597V314.487C249.775 313.945 249.706 313.47 249.569 313.062C249.435 312.651 249.225 312.331 248.938 312.101C248.651 311.869 248.28 311.752 247.824 311.752C247.406 311.752 247.052 311.869 246.762 312.101C246.472 312.334 246.252 312.656 246.102 313.067C245.953 313.475 245.878 313.949 245.878 314.487V314.597C245.878 315.139 245.953 315.617 246.102 316.032C246.252 316.443 246.472 316.765 246.762 316.998C247.052 317.227 247.406 317.342 247.824 317.342ZM253.963 318.026L251.63 311.748L251.075 311.671V311.064H253.275V311.671L252.639 311.771L254.197 316.199L254.36 316.749H254.389L254.561 316.199L256.177 311.767L255.469 311.671V311.064H257.664V311.671L257.105 311.748L254.771 318.026H253.963ZM260.992 318.026V317.423L262.068 317.289V312.073L260.973 312.092V311.504L263.01 311.064V317.289L264.081 317.423V318.026H260.992ZM267.155 318.126C266.473 318.126 265.925 317.957 265.51 317.619C265.096 317.278 264.889 316.786 264.889 316.142C264.889 315.75 265.007 315.404 265.243 315.104C265.479 314.804 265.797 314.585 266.199 314.444C265.852 314.31 265.579 314.108 265.381 313.837C265.184 313.563 265.085 313.244 265.085 312.881C265.085 312.269 265.273 311.797 265.649 311.465C266.028 311.131 266.527 310.963 267.146 310.963C267.758 310.963 268.257 311.131 268.642 311.465C269.031 311.797 269.226 312.269 269.226 312.881C269.226 313.244 269.124 313.563 268.92 313.837C268.716 314.108 268.44 314.31 268.092 314.444C268.494 314.585 268.814 314.804 269.054 315.104C269.296 315.404 269.417 315.75 269.417 316.142C269.417 316.786 269.207 317.278 268.786 317.619C268.368 317.957 267.825 318.126 267.155 318.126ZM267.155 314.071C267.487 314.071 267.758 313.965 267.968 313.751C268.179 313.537 268.284 313.254 268.284 312.9C268.284 312.556 268.175 312.27 267.959 312.044C267.745 311.818 267.474 311.704 267.146 311.704C266.811 311.704 266.54 311.814 266.333 312.034C266.129 312.251 266.027 312.54 266.027 312.9C266.027 313.254 266.13 313.537 266.338 313.751C266.545 313.965 266.817 314.071 267.155 314.071ZM267.155 317.39C267.547 317.39 267.866 317.277 268.112 317.05C268.357 316.824 268.48 316.515 268.48 316.123C268.48 315.74 268.354 315.426 268.102 315.181C267.85 314.935 267.531 314.812 267.146 314.812C266.757 314.812 266.44 314.935 266.194 315.181C265.952 315.423 265.831 315.737 265.831 316.123C265.831 316.518 265.95 316.829 266.189 317.055C266.432 317.278 266.754 317.39 267.155 317.39ZM270.502 319.513L269.972 319.159C270.121 318.929 270.235 318.695 270.311 318.456C270.388 318.217 270.426 317.963 270.426 317.696V316.969H271.368V317.681C271.368 317.994 271.29 318.32 271.133 318.662C270.977 319.003 270.767 319.286 270.502 319.513ZM274.696 318.026V317.38L276.976 314.846C277.247 314.543 277.459 314.285 277.612 314.071C277.765 313.855 277.872 313.659 277.933 313.483C277.993 313.308 278.024 313.126 278.024 312.938C278.024 312.591 277.918 312.299 277.708 312.063C277.498 311.824 277.196 311.704 276.804 311.704C276.396 311.704 276.078 311.827 275.848 312.073C275.622 312.318 275.509 312.666 275.509 313.115H274.605L274.595 313.086C274.586 312.685 274.67 312.324 274.849 312.006C275.027 311.684 275.285 311.43 275.623 311.245C275.964 311.057 276.369 310.963 276.838 310.963C277.278 310.963 277.655 311.048 277.971 311.217C278.29 311.383 278.535 311.61 278.707 311.901C278.88 312.191 278.966 312.524 278.966 312.9C278.966 313.282 278.852 313.663 278.626 314.043C278.403 314.422 278.087 314.832 277.679 315.271L275.848 317.265L275.858 317.289H278.33L278.406 316.491H279.205V318.026H274.696ZM282.442 318.126C281.76 318.126 281.219 317.889 280.821 317.414C280.422 316.939 280.223 316.258 280.223 315.372V313.722C280.223 312.836 280.421 312.156 280.816 311.681C281.211 311.202 281.75 310.963 282.432 310.963C283.118 310.963 283.659 311.202 284.058 311.681C284.456 312.156 284.656 312.836 284.656 313.722V315.372C284.656 316.261 284.458 316.943 284.063 317.418C283.667 317.89 283.127 318.126 282.442 318.126ZM282.442 317.39C283.29 317.39 283.714 316.781 283.714 315.563V313.521C283.714 312.31 283.286 311.704 282.432 311.704C282.021 311.704 281.707 311.857 281.49 312.164C281.273 312.466 281.165 312.919 281.165 313.521V315.563C281.165 316.166 281.275 316.621 281.495 316.931C281.715 317.237 282.031 317.39 282.442 317.39ZM285.693 318.026V317.38L287.974 314.846C288.245 314.543 288.457 314.285 288.61 314.071C288.763 313.855 288.87 313.659 288.93 313.483C288.991 313.308 289.021 313.126 289.021 312.938C289.021 312.591 288.916 312.299 288.706 312.063C288.495 311.824 288.194 311.704 287.802 311.704C287.394 311.704 287.075 311.827 286.846 312.073C286.619 312.318 286.506 312.666 286.506 313.115H285.602L285.593 313.086C285.583 312.685 285.668 312.324 285.846 312.006C286.025 311.684 286.283 311.43 286.621 311.245C286.962 311.057 287.367 310.963 287.835 310.963C288.275 310.963 288.653 311.048 288.968 311.217C289.287 311.383 289.533 311.61 289.705 311.901C289.877 312.191 289.963 312.524 289.963 312.9C289.963 313.282 289.85 313.663 289.624 314.043C289.4 314.422 289.085 314.832 288.677 315.271L286.846 317.265L286.855 317.289H289.327L289.404 316.491H290.202V318.026H285.693ZM293.138 318.126C292.746 318.126 292.394 318.054 292.081 317.911C291.772 317.767 291.53 317.555 291.354 317.275C291.179 316.991 291.096 316.641 291.106 316.223L291.115 316.194H291.966C291.966 316.57 292.075 316.864 292.292 317.074C292.512 317.285 292.794 317.39 293.138 317.39C293.536 317.39 293.846 317.249 294.066 316.969C294.286 316.688 294.396 316.304 294.396 315.817C294.396 315.367 294.284 315.001 294.061 314.717C293.841 314.43 293.535 314.287 293.143 314.287C292.773 314.287 292.504 314.342 292.335 314.454C292.169 314.565 292.048 314.736 291.971 314.965L291.187 314.884L291.589 311.064H295.266V312.441H294.558L294.467 311.901H292.387L292.163 313.856C292.306 313.748 292.467 313.659 292.645 313.588C292.827 313.515 293.036 313.475 293.272 313.469C293.913 313.462 294.416 313.671 294.783 314.095C295.153 314.519 295.337 315.09 295.337 315.807C295.337 316.505 295.149 317.066 294.773 317.49C294.4 317.914 293.855 318.126 293.138 318.126Z" fill="white"/>
<rect x="216.567" y="0.566567" width="278.653" height="605.494" rx="41.4014" stroke="url(#paint7_linear_301_3013)" stroke-width="1.13313"/>
</g>
<defs>
<filter id="filter0_f_301_3013" x="0" y="50" width="756" height="756" filterUnits="userSpaceOnUse" color-interpolation-filters="sRGB">
<feFlood flood-opacity="0" result="BackgroundImageFix"/>
<feBlend mode="normal" in="SourceGraphic" in2="BackgroundImageFix" result="shape"/>
<feGaussianBlur stdDeviation="125" result="effect1_foregroundBlur_301_3013"/>
</filter>
<filter id="filter1_bi_301_3013" x="200.157" y="-15.8429" width="332.456" height="638.822" filterUnits="userSpaceOnUse" color-interpolation-filters="sRGB">
<feFlood flood-opacity="0" result="BackgroundImageFix"/>
<feGaussianBlur in="BackgroundImageFix" stdDeviation="7.92145"/>
<feComposite in2="SourceAlpha" operator="in" result="effect1_backgroundBlur_301_3013"/>
<feBlend mode="normal" in="SourceGraphic" in2="effect1_backgroundBlur_301_3013" result="shape"/>
<feColorMatrix in="SourceAlpha" type="matrix" values="0 0 0 0 0 0 0 0 0 0 0 0 0 0 0 0 0 0 127 0" result="hardAlpha"/>
<feOffset dx="-1.8326" dy="-1.13174"/>
<feGaussianBlur stdDeviation="1.48257"/>
<feComposite in2="hardAlpha" operator="arithmetic" k2="-1" k3="1"/>
<feColorMatrix type="matrix" values="0 0 0 0 0.980392 0 0 0 0 0.980392 0 0 0 0 0.980392 0 0 0 0.22 0"/>
<feBlend mode="normal" in2="shape" result="effect2_innerShadow_301_3013"/>
</filter>
<filter id="filter2_bi_301_3013" x="354.174" y="137.552" width="171.31" height="266.437" filterUnits="userSpaceOnUse" color-interpolation-filters="sRGB">
<feFlood flood-opacity="0" result="BackgroundImageFix"/>
<feGaussianBlur in="BackgroundImageFix" stdDeviation="4.3568"/>
<feComposite in2="SourceAlpha" operator="in" result="effect1_backgroundBlur_301_3013"/>
<feBlend mode="normal" in="SourceGraphic" in2="effect1_backgroundBlur_301_3013" result="shape"/>
<feColorMatrix in="SourceAlpha" type="matrix" values="0 0 0 0 0 0 0 0 0 0 0 0 0 0 0 0 0 0 127 0" result="hardAlpha"/>
<feOffset dx="-1.00793" dy="-0.622454"/>
<feGaussianBlur stdDeviation="0.815415"/>
<feComposite in2="hardAlpha" operator="arithmetic" k2="-1" k3="1"/>
<feColorMatrix type="matrix" values="0 0 0 0 0.980392 0 0 0 0 0.980392 0 0 0 0 0.980392 0 0 0 0.22 0"/>
<feBlend mode="normal" in2="shape" result="effect2_innerShadow_301_3013"/>
</filter>
<filter id="filter3_i_301_3013" x="387.124" y="300.148" width="28.8528" height="19.2354" filterUnits="userSpaceOnUse" color-interpolation-filters="sRGB">
<feFlood flood-opacity="0" result="BackgroundImageFix"/>
<feBlend mode="normal" in="SourceGraphic" in2="BackgroundImageFix" result="shape"/>
<feColorMatrix in="SourceAlpha" type="matrix" values="0 0 0 0 0 0 0 0 0 0 0 0 0 0 0 0 0 0 127 0" result="hardAlpha"/>
<feOffset dx="-0.623224" dy="0.622454"/>
<feComposite in2="hardAlpha" operator="arithmetic" k2="-1" k3="1"/>
<feColorMatrix type="matrix" values="0 0 0 0 0.84 0 0 0 0 0.828 0 0 0 0 0.76 0 0 0 1 0"/>
<feBlend mode="normal" in2="shape" result="effect1_innerShadow_301_3013"/>
</filter>
<filter id="filter4_i_301_3013" x="473.403" y="165.151" width="26.2296" height="20.984" filterUnits="userSpaceOnUse" color-interpolation-filters="sRGB">
<feFlood flood-opacity="0" result="BackgroundImageFix"/>
<feBlend mode="normal" in="SourceGraphic" in2="BackgroundImageFix" result="shape"/>
<feColorMatrix in="SourceAlpha" type="matrix" values="0 0 0 0 0 0 0 0 0 0 0 0 0 0 0 0 0 0 127 0" result="hardAlpha"/>
<feOffset dx="-0.433669" dy="1.13313"/>
<feComposite in2="hardAlpha" operator="arithmetic" k2="-1" k3="1"/>
<feColorMatrix type="matrix" values="0 0 0 0 0.68 0 0 0 0 0.656 0 0 0 0 0.52 0 0 0 1 0"/>
<feBlend mode="normal" in2="shape" result="effect1_innerShadow_301_3013"/>
</filter>
<linearGradient id="paint0_linear_301_3013" x1="495.786" y1="0" x2="85.6037" y2="499.561" gradientUnits="userSpaceOnUse">
<stop stop-color="#D6D3C2" stop-opacity="0.2"/>
<stop offset="1" stop-color="#5C5C5C" stop-opacity="0.14"/>
</linearGradient>
<linearGradient id="paint1_linear_301_3013" x1="362.888" y1="146.265" x2="515.834" y2="395.849" gradientUnits="userSpaceOnUse">
<stop stop-color="#D6D3C2" stop-opacity="0.6"/>
<stop offset="1" stop-color="#5C5C5C" stop-opacity="0.14"/>
</linearGradient>
<linearGradient id="paint2_linear_301_3013" x1="516.77" y1="146.265" x2="414.214" y2="362.915" gradientUnits="userSpaceOnUse">
<stop stop-color="#262626"/>
<stop offset="1" stop-color="#121212"/>
</linearGradient>
<linearGradient id="paint3_linear_301_3013" x1="499.633" y1="166.462" x2="486.834" y2="172.71" gradientUnits="userSpaceOnUse">
<stop stop-color="#FBFBF9"/>
<stop offset="1" stop-color="#ADA785"/>
</linearGradient>
<linearGradient id="paint4_linear_301_3013" x1="481.322" y1="179.839" x2="476.574" y2="187.141" gradientUnits="userSpaceOnUse">
<stop stop-color="#FBFBF9"/>
<stop offset="1" stop-color="#ADA785"/>
</linearGradient>
<linearGradient id="paint5_linear_301_3013" x1="6.40326" y1="1.06963e-06" x2="-7.21699" y2="5.98357" gradientUnits="userSpaceOnUse">
<stop stop-color="#FBFBF9"/>
<stop offset="1" stop-color="#ADA785"/>
</linearGradient>
<linearGradient id="paint6_linear_301_3013" x1="516.77" y1="146.265" x2="363.825" y2="395.849" gradientUnits="userSpaceOnUse">
<stop stop-color="#FAFAFA"/>
<stop offset="1" stop-color="#5C5C5C" stop-opacity="0.08"/>
</linearGradient>
<linearGradient id="paint7_linear_301_3013" x1="495.786" y1="0" x2="85.6037" y2="499.561" gradientUnits="userSpaceOnUse">
<stop stop-color="#999999"/>
<stop offset="1" stop-color="#141414"/>
</linearGradient>
<clipPath id="clip0_301_3013">
<rect x="362.888" y="146.265" width="153.882" height="249.01" rx="15.8429" fill="white"/>
</clipPath>
</defs>
</svg>
