<svg width="28" height="18" viewBox="0 0 28 18" fill="none" xmlns="http://www.w3.org/2000/svg">
<path d="M13.6424 1.82587L13.6424 7.92397H1.60132C0.993392 7.92397 0.5 8.40596 0.5 8.99985C0.5 9.59374 0.993392 10.0757 1.60132 10.0757H13.6424V16.1738C13.6424 16.5655 13.8598 16.9269 14.2122 17.1163C14.5631 17.3057 14.9919 17.2927 15.3297 17.0847L26.9846 9.91077C27.3062 9.7128 27.5 9.36996 27.5 8.99985C27.5 8.62975 27.3062 8.2869 26.9846 8.08894L19.732 3.62618C19.2195 3.30916 18.5382 3.45978 18.2137 3.96186C17.8906 4.46537 18.0448 5.12955 18.5602 5.44657L24.3311 8.99985L15.8451 14.2258L15.8451 1.82587C15.8451 1.23199 15.3517 0.74999 14.7438 0.74999C14.1358 0.74999 13.6424 1.23199 13.6424 1.82587Z" fill="url(#paint0_linear_301_3448)"/>
<defs>
<linearGradient id="paint0_linear_301_3448" x1="27.5" y1="17.25" x2="20.6696" y2="-5.34673" gradientUnits="userSpaceOnUse">
<stop stop-color="#ADA785"/>
<stop offset="1" stop-color="#D6D3C2"/>
</linearGradient>
</defs>
</svg>
