<svg width="17" height="18" viewBox="0 0 17 18" fill="none" xmlns="http://www.w3.org/2000/svg">
<g filter="url(#filter0_i_301_2682)">
<path fill-rule="evenodd" clip-rule="evenodd" d="M15.7061 5.61847C16.3102 6.10435 16.6649 6.83534 16.6727 7.61057L16.6653 14.3763C16.6653 16.2141 15.1755 17.7039 13.3377 17.7039H11.8621C10.9726 17.7039 10.2503 16.985 10.2463 16.0955V13.0409C10.2463 12.8046 10.0547 12.613 9.81834 12.613H7.60489C7.49011 12.6129 7.38013 12.659 7.29966 12.7409C7.21919 12.8228 7.17498 12.9335 7.17696 13.0483V14.214C7.17696 14.5808 6.87966 14.8781 6.51293 14.8781C6.14619 14.8781 5.84889 14.5808 5.84889 14.214V13.0483C5.84889 12.5806 6.03468 12.1321 6.36537 11.8014C6.69607 11.4707 7.1446 11.2849 7.61227 11.2849H9.82572C10.7967 11.289 11.5817 12.0773 11.5817 13.0483V16.0955C11.5817 16.2503 11.7073 16.3758 11.8621 16.3758H13.3746C14.4748 16.3758 15.3667 15.4839 15.3667 14.3837V7.62533C15.3613 7.25092 15.188 6.89877 14.8945 6.66617L9.79621 2.6008C9.15332 2.07151 8.22565 2.07151 7.58276 2.6008L5.94481 3.82557C5.64123 4.04358 5.21841 3.97421 5.0004 3.67063C4.7824 3.36706 4.85177 2.94423 5.15534 2.72623L6.77116 1.5531C7.89151 0.652548 9.48746 0.652548 10.6078 1.5531L15.7061 5.61847ZM4.05601 16.3684H7.44996V16.3832C7.8167 16.3832 8.114 16.6805 8.114 17.0472C8.114 17.4139 7.8167 17.7112 7.44996 17.7112H4.05601C2.21993 17.7072 0.732512 16.2197 0.728455 14.3837V7.62527C0.740194 6.8443 1.10678 6.11114 1.72451 5.63317L2.33689 5.17572C2.62527 5.03978 2.96956 5.12796 3.15707 5.38579C3.34459 5.64363 3.32241 5.99834 3.10422 6.2308L2.50659 6.67349C2.22342 6.90875 2.05868 7.25713 2.05652 7.62527V14.3763C2.0646 15.476 2.95626 16.3644 4.05601 16.3684Z" fill="url(#paint0_linear_301_2682)"/>
</g>
<defs>
<filter id="filter0_i_301_2682" x="0.728455" y="0.877686" width="15.9442" height="16.8335" filterUnits="userSpaceOnUse" color-interpolation-filters="sRGB">
<feFlood flood-opacity="0" result="BackgroundImageFix"/>
<feBlend mode="normal" in="SourceGraphic" in2="BackgroundImageFix" result="shape"/>
<feColorMatrix in="SourceAlpha" type="matrix" values="0 0 0 0 0 0 0 0 0 0 0 0 0 0 0 0 0 0 127 0" result="hardAlpha"/>
<feOffset dx="-0.526063" dy="0.526063"/>
<feComposite in2="hardAlpha" operator="arithmetic" k2="-1" k3="1"/>
<feColorMatrix type="matrix" values="0 0 0 0 0.68 0 0 0 0 0.656 0 0 0 0 0.52 0 0 0 1 0"/>
<feBlend mode="normal" in2="shape" result="effect1_innerShadow_301_2682"/>
</filter>
<linearGradient id="paint0_linear_301_2682" x1="16.6727" y1="0.877686" x2="3.70883" y2="19.7577" gradientUnits="userSpaceOnUse">
<stop stop-color="#FBFBF9"/>
<stop offset="1" stop-color="#ADA785"/>
</linearGradient>
</defs>
</svg>
