<svg width="16" height="18" viewBox="0 0 16 18" fill="none" xmlns="http://www.w3.org/2000/svg">
<g filter="url(#filter0_i_301_2689)">
<path fill-rule="evenodd" clip-rule="evenodd" d="M14.7932 8.77334C15.1376 9.29185 15.3352 9.89265 15.3653 10.5129L15.3427 10.6697C15.3687 11.5184 15.0854 12.348 14.5448 13.0064C13.8544 13.7514 12.9106 14.2168 11.895 14.313C9.39334 14.5876 6.8688 14.5876 4.36717 14.313C3.36642 14.2102 2.43904 13.745 1.76255 13.0064C1.21302 12.3574 0.921249 11.5318 0.942016 10.6846V10.5801C0.983403 9.94128 1.19655 9.32516 1.5593 8.79573L1.61952 8.72108C1.99677 8.29652 2.25619 7.78196 2.3723 7.22791V6.58585V5.68996C2.47904 5.42024 2.75471 5.25486 3.04514 5.28628C3.33557 5.3177 3.56879 5.53815 3.61439 5.82434V6.57092V7.3623C3.61731 7.3896 3.61731 7.41712 3.61439 7.44442C3.45764 8.21464 3.09938 8.93042 2.57555 9.51992C2.37382 9.83861 2.25963 10.2041 2.24433 10.5801V10.7443C2.22761 11.2731 2.40405 11.7901 2.74116 12.2001C3.20854 12.6789 3.83353 12.9756 4.50267 13.0363C6.92449 13.2976 9.36776 13.2976 11.7896 13.0363C12.477 12.9737 13.1173 12.6629 13.5887 12.1628C13.9093 11.7625 14.0772 11.2628 14.063 10.7518V10.5801C14.0475 10.2028 13.9362 9.83557 13.7393 9.51245C13.1937 8.92965 12.8143 8.21328 12.6402 7.43696C12.6373 7.40966 12.6373 7.38213 12.6402 7.35483V6.55599V5.80941C12.4219 3.55474 10.1561 2.15863 8.18377 2.15863C7.34525 2.15672 6.52053 2.3702 5.78992 2.77829C5.58762 2.8989 5.33516 2.90076 5.13108 2.78313C4.927 2.6655 4.80365 2.44704 4.80916 2.21301C4.81468 1.97897 4.94819 1.76646 5.15759 1.65842C6.06292 1.15118 7.08375 0.88137 8.12354 0.874512C10.7282 0.874512 13.649 2.7111 13.9802 5.66009V6.54106V7.19805C14.0933 7.75313 14.3531 8.26844 14.733 8.69121C14.7555 8.71675 14.7756 8.74423 14.7932 8.77334ZM8.36679 16.5128C8.80916 16.4469 9.20672 16.2086 9.47124 15.8509H9.47877C9.70743 15.5767 10.1169 15.5382 10.3934 15.765C10.6699 15.9918 10.7086 16.3979 10.48 16.6721C9.91627 17.4032 9.04417 17.8356 8.11624 17.8442C7.19096 17.8333 6.32212 17.4011 5.76003 16.6721C5.53137 16.3979 5.57013 15.9918 5.8466 15.765C6.12308 15.5382 6.53257 15.5767 6.76123 15.8509C6.86165 15.984 6.9808 16.1022 7.11504 16.2018C7.47384 16.4667 7.92443 16.5786 8.36679 16.5128Z" fill="url(#paint0_linear_301_2689)"/>
</g>
<defs>
<filter id="filter0_i_301_2689" x="0.940979" y="0.874512" width="14.4243" height="16.9697" filterUnits="userSpaceOnUse" color-interpolation-filters="sRGB">
<feFlood flood-opacity="0" result="BackgroundImageFix"/>
<feBlend mode="normal" in="SourceGraphic" in2="BackgroundImageFix" result="shape"/>
<feColorMatrix in="SourceAlpha" type="matrix" values="0 0 0 0 0 0 0 0 0 0 0 0 0 0 0 0 0 0 127 0" result="hardAlpha"/>
<feOffset dx="-0.526063" dy="0.526063"/>
<feComposite in2="hardAlpha" operator="arithmetic" k2="-1" k3="1"/>
<feColorMatrix type="matrix" values="0 0 0 0 0.68 0 0 0 0 0.656 0 0 0 0 0.52 0 0 0 1 0"/>
<feBlend mode="normal" in2="shape" result="effect1_innerShadow_301_2689"/>
</filter>
<linearGradient id="paint0_linear_301_2689" x1="15.3653" y1="0.874513" x2="1.84935" y2="18.5393" gradientUnits="userSpaceOnUse">
<stop stop-color="#FBFBF9"/>
<stop offset="1" stop-color="#ADA785"/>
</linearGradient>
</defs>
</svg>
