<svg width="10" height="12" viewBox="0 0 10 12" fill="none" xmlns="http://www.w3.org/2000/svg">
<path fill-rule="evenodd" clip-rule="evenodd" d="M5.2895 0.272179L9.04692 1.5545C9.46719 1.69817 9.74951 2.08507 9.74951 2.51836V6.27481C9.74951 7.41345 9.32633 8.51589 8.55854 9.37624C8.20696 9.77049 7.75583 10.1093 7.17956 10.4125L5.14863 11.4787C5.08518 11.5115 5.01533 11.5285 4.9449 11.5285C4.87505 11.5285 4.80519 11.5115 4.74175 11.4787L2.70674 10.4119C2.1293 10.1082 1.6776 9.76936 1.3266 9.3768C0.557648 8.51533 0.133301 7.41232 0.133301 6.27254C0.133301 6.04289 0.325392 5.85623 0.561723 5.85623C0.798053 5.85623 0.990145 6.04289 0.990145 6.27254C0.990145 7.21265 1.3394 8.12107 1.9733 8.83152C2.25562 9.14772 2.62874 9.42488 3.11363 9.67942L4.9449 10.6393L6.77209 9.67999C7.25582 9.42602 7.62894 9.14885 7.91184 8.83152C8.54457 8.12164 8.89325 7.21434 8.89325 6.27481V2.51836C8.89325 2.43803 8.84086 2.36676 8.76344 2.34018L5.00602 1.05786C4.96469 1.04372 4.9187 1.04372 4.87679 1.05786L1.11995 2.34018C1.04253 2.36676 0.990145 2.43803 0.990145 2.51836V3.59308C0.990145 3.8233 0.798053 4.00996 0.561723 4.00996C0.325392 4.00996 0.133301 3.8233 0.133301 3.59308V2.51836C0.133301 2.08507 0.416199 1.69817 0.836472 1.5545L4.59331 0.272179C4.818 0.196383 5.06539 0.196383 5.2895 0.272179ZM4.5375 7.18279C4.42341 7.18279 4.31514 7.13867 4.23481 7.06061L3.15444 6.01077C2.98738 5.84787 2.98738 5.58541 3.15444 5.4225C3.32209 5.2596 3.59276 5.2596 3.75982 5.4225L4.5375 6.17764L6.45958 4.31044C6.62664 4.1481 6.8979 4.1481 7.06496 4.31044C7.23202 4.47278 7.23202 4.73638 7.06496 4.89872L4.84019 7.06061C4.75986 7.13867 4.65101 7.18279 4.5375 7.18279Z" fill="#89D22B"/>
</svg>
