<svg width="43" height="53" viewBox="0 0 43 53" fill="none" xmlns="http://www.w3.org/2000/svg">
<g filter="url(#filter0_i_301_2592)">
<path d="M0.554428 19.904C0.333794 19.6119 0.174157 19.2802 0.0846328 18.9277C-0.00489168 18.5753 -0.0225511 18.2091 0.0326629 17.85C0.144173 17.1247 0.545742 16.4725 1.14903 16.0368C1.75232 15.601 2.50791 15.4175 3.24958 15.5266C3.99125 15.6356 4.65824 16.0283 5.10383 16.6182C6.14881 17.9895 6.96552 19.5138 7.52373 21.1345C8.10405 22.816 8.39835 24.5793 8.39489 26.354C8.39684 28.1241 8.10256 29.8827 7.52373 31.5599C6.96552 33.1806 6.14881 34.7049 5.10383 36.0762C4.65824 36.6661 3.99125 37.0588 3.24958 37.1678C2.50791 37.2769 1.75232 37.0933 1.14903 36.6576C0.545742 36.2219 0.144173 35.5697 0.032663 34.8444C-0.0788467 34.1192 0.108838 33.3803 0.554428 32.7904C1.2449 31.8918 1.78623 30.8925 2.15847 29.8291C2.55426 28.711 2.7598 27.5371 2.7669 26.354C2.77165 25.1776 2.58016 24.0084 2.19996 22.8924C1.8176 21.817 1.26209 20.8081 0.554428 19.904ZM10.234 14.7522C12.435 18.2382 13.5942 22.2571 13.5804 26.354C13.5992 30.4435 12.4498 34.457 10.2617 37.9422C10.0665 38.2512 9.93539 38.5947 9.87596 38.9532C9.81652 39.3117 9.82988 39.6782 9.91527 40.0316C10.0007 40.3851 10.1564 40.7186 10.3736 41.0132C10.5908 41.3078 10.8653 41.5577 11.1812 41.7486C11.4972 41.9395 11.8485 42.0677 12.2151 42.1258C12.5818 42.1839 12.9565 42.1708 13.318 42.0873C13.6794 42.0038 14.0205 41.8515 14.3218 41.6391C14.6231 41.4267 14.8786 41.1584 15.0738 40.8494C17.8156 36.492 19.2528 31.4701 19.2222 26.354C19.2547 21.2334 17.8174 16.2066 15.0738 11.845C14.8786 11.536 14.6231 11.2677 14.3218 11.0553C14.0205 10.8429 13.6794 10.6906 13.318 10.6071C12.9565 10.5236 12.5818 10.5105 12.2151 10.5686C11.8485 10.6267 11.4972 10.7549 11.1812 10.9458C10.8653 11.1367 10.5908 11.3866 10.3736 11.6812C10.1564 11.9758 10.0007 12.3093 9.91527 12.6628C9.82988 13.0162 9.81652 13.3827 9.87596 13.7412C9.93539 14.0997 10.0665 14.4432 10.2617 14.7522H10.234ZM20.5359 9.54628C23.5913 14.6631 25.1996 20.4828 25.1959 26.408C25.1978 32.3288 23.5895 38.1436 20.5359 43.2563C20.3479 43.5697 20.2249 43.9163 20.1739 44.2761C20.123 44.636 20.145 45.0022 20.2387 45.3538C20.3324 45.7054 20.4961 46.0354 20.7202 46.3252C20.9444 46.6149 21.2248 46.8586 21.5453 47.0424C21.8658 47.2262 22.2202 47.3465 22.5882 47.3963C22.9563 47.4462 23.3307 47.4247 23.6903 47.333C24.0498 47.2413 24.3874 47.0813 24.6836 46.8621C24.9799 46.6429 25.2292 46.3687 25.4171 46.0553C28.9871 40.1019 30.8634 33.323 30.8515 26.4216C30.875 19.4948 29.0035 12.688 25.431 6.70669C25.0459 6.07193 24.4187 5.61275 23.6874 5.43017C22.9561 5.24759 22.1806 5.35656 21.5315 5.73311C20.8823 6.10967 20.4128 6.72295 20.226 7.43806C20.0393 8.15317 20.1508 8.91152 20.5359 9.54628ZM30.7962 4.27275C34.7262 11.016 36.7855 18.6466 36.7699 26.408C36.7838 34.165 34.7245 41.7908 30.7962 48.5298C30.6146 48.845 30.4983 49.1921 30.4539 49.5512C30.4094 49.9104 30.4378 50.2746 30.5373 50.623C30.6368 50.9715 30.8056 51.2973 31.0339 51.582C31.2621 51.8667 31.5456 52.1046 31.8679 52.2821C32.1902 52.4597 32.5451 52.5735 32.9124 52.6169C33.2797 52.6603 33.6521 52.6326 34.0085 52.5353C34.3648 52.438 34.698 52.273 34.9891 52.0498C35.2802 51.8265 35.5235 51.5494 35.7051 51.2342C40.1183 43.6577 42.4347 35.0868 42.4255 26.3675C42.4461 17.6253 40.1293 9.02979 35.7051 1.43316C35.3384 0.796604 34.7281 0.328583 34.0085 0.132055C33.2888 -0.0644725 32.5188 0.0265913 31.8679 0.385214C31.2169 0.743836 30.7383 1.34064 30.5373 2.04434C30.3363 2.74803 30.4295 3.50098 30.7962 4.13753" fill="url(#paint0_linear_301_2592)"/>
</g>
<defs>
<filter id="filter0_i_301_2592" x="0.0012207" y="0.0305176" width="42.4244" height="52.6062" filterUnits="userSpaceOnUse" color-interpolation-filters="sRGB">
<feFlood flood-opacity="0" result="BackgroundImageFix"/>
<feBlend mode="normal" in="SourceGraphic" in2="BackgroundImageFix" result="shape"/>
<feColorMatrix in="SourceAlpha" type="matrix" values="0 0 0 0 0 0 0 0 0 0 0 0 0 0 0 0 0 0 127 0" result="hardAlpha"/>
<feOffset dx="-0.526063" dy="1.37455"/>
<feComposite in2="hardAlpha" operator="arithmetic" k2="-1" k3="1"/>
<feColorMatrix type="matrix" values="0 0 0 0 0.68 0 0 0 0 0.656 0 0 0 0 0.52 0 0 0 1 0"/>
<feBlend mode="normal" in2="shape" result="effect1_innerShadow_301_2592"/>
</filter>
<linearGradient id="paint0_linear_301_2592" x1="42.4257" y1="0.0305196" x2="0.00122095" y2="52.6368" gradientUnits="userSpaceOnUse">
<stop stop-color="#FBFBF9"/>
<stop offset="1" stop-color="#ADA785"/>
</linearGradient>
</defs>
</svg>
